%TF.GenerationSoftware,KiCad,Pcbnew,(6.99.0-2504-g6a9c6e8599)*%
%TF.CreationDate,2023-09-08T01:08:47-07:00*%
%TF.ProjectId,EZO_Qwiic,455a4f5f-5177-4696-9963-2e6b69636164,rev?*%
%TF.SameCoordinates,Original*%
%TF.FileFunction,Profile,NP*%
%FSLAX46Y46*%
G04 Gerber Fmt 4.6, Leading zero omitted, Abs format (unit mm)*
G04 Created by KiCad (PCBNEW (6.99.0-2504-g6a9c6e8599)) date 2023-09-08 01:08:47*
%MOMM*%
%LPD*%
G01*
G04 APERTURE LIST*
%TA.AperFunction,Profile*%
%ADD10C,0.200000*%
%TD*%
%ADD11C,0.200000*%
G04 APERTURE END LIST*
D10*
X160517403Y-95820000D02*
G75*
G03*
X160517403Y-95820000I-1700000J0D01*
G01*
X160517403Y-71820000D02*
G75*
G03*
X160517403Y-71820000I-1700000J0D01*
G01*
X166817403Y-87900000D02*
X166817403Y-79740000D01*
X165817403Y-88900000D02*
G75*
G03*
X166817403Y-87900000I1J999999D01*
G01*
X163817403Y-88900000D02*
X165817403Y-88900000D01*
X163817403Y-88900000D02*
G75*
G03*
X162817403Y-89900000I1J-1000001D01*
G01*
X162817403Y-96820000D02*
X162817403Y-89900000D01*
X159817403Y-99820000D02*
G75*
G03*
X162817403Y-96820000I2J2999998D01*
G01*
X146817404Y-99820000D02*
X159817403Y-99820000D01*
D11*
X145847837Y-98964528D02*
X145817404Y-98820000D01*
X145957314Y-99172705D02*
X145859883Y-98994877D01*
X145847837Y-98964528D01*
X146419512Y-99649001D02*
X146257623Y-99518015D01*
X146107931Y-99367017D01*
X145979607Y-99205454D01*
X145957314Y-99172705D01*
X146695837Y-99797607D02*
X146510327Y-99709015D01*
X146419512Y-99649001D01*
X146817404Y-99820000D02*
X146695837Y-99797607D01*
D10*
X145817404Y-92805000D02*
X145817404Y-98820000D01*
D11*
X146672876Y-91835433D02*
X146817404Y-91805000D01*
X146464699Y-91944910D02*
X146642526Y-91847479D01*
X146672876Y-91835433D01*
X145988403Y-92407109D02*
X146119388Y-92245220D01*
X146270386Y-92095528D01*
X146431949Y-91967203D01*
X146464699Y-91944910D01*
X145839797Y-92683433D02*
X145928388Y-92497923D01*
X145988403Y-92407109D01*
X145817404Y-92805000D02*
X145839797Y-92683433D01*
D10*
X151897403Y-91805000D02*
X146817404Y-91805000D01*
D11*
X152866970Y-90949527D02*
X152897403Y-90805000D01*
X152757493Y-91157705D02*
X152854923Y-90979876D01*
X152866970Y-90949527D01*
X152295295Y-91634001D02*
X152457183Y-91503015D01*
X152606875Y-91352017D01*
X152735199Y-91190454D01*
X152757493Y-91157705D01*
X152018970Y-91782607D02*
X152204479Y-91694015D01*
X152295295Y-91634001D01*
X151897403Y-91805000D02*
X152018970Y-91782607D01*
D10*
X152897403Y-76835000D02*
X152897403Y-90805000D01*
D11*
X152041931Y-75865433D02*
X151897403Y-75835000D01*
X152250108Y-75974910D02*
X152072280Y-75877479D01*
X152041931Y-75865433D01*
X152726404Y-76437109D02*
X152595418Y-76275220D01*
X152444420Y-76125528D01*
X152282857Y-75997203D01*
X152250108Y-75974910D01*
X152875010Y-76713433D02*
X152786418Y-76527923D01*
X152726404Y-76437109D01*
X152897403Y-76835000D02*
X152875010Y-76713433D01*
D10*
X146817404Y-75835000D02*
X151897403Y-75835000D01*
D11*
X145847837Y-74979527D02*
X145817404Y-74835000D01*
X145957314Y-75187705D02*
X145859883Y-75009876D01*
X145847837Y-74979527D01*
X146419512Y-75664001D02*
X146257623Y-75533015D01*
X146107931Y-75382017D01*
X145979607Y-75220454D01*
X145957314Y-75187705D01*
X146695837Y-75812607D02*
X146510327Y-75724015D01*
X146419512Y-75664001D01*
X146817404Y-75835000D02*
X146695837Y-75812607D01*
D10*
X145817404Y-68820000D02*
X145817404Y-74835000D01*
D11*
X146672876Y-67850433D02*
X146817404Y-67820000D01*
X146464699Y-67959910D02*
X146642526Y-67862479D01*
X146672876Y-67850433D01*
X145988403Y-68422109D02*
X146119388Y-68260220D01*
X146270386Y-68110528D01*
X146431949Y-67982203D01*
X146464699Y-67959910D01*
X145839797Y-68698433D02*
X145928388Y-68512923D01*
X145988403Y-68422109D01*
X145817404Y-68820000D02*
X145839797Y-68698433D01*
D10*
X159817403Y-67820000D02*
X146817404Y-67820000D01*
X162817403Y-70820000D02*
G75*
G03*
X159817403Y-67820000I-2999998J2D01*
G01*
X162817403Y-77740000D02*
X162817403Y-70820000D01*
X162817403Y-77740000D02*
G75*
G03*
X163817403Y-78740000I1000001J1D01*
G01*
X165817403Y-78740000D02*
X163817403Y-78740000D01*
X166817403Y-79740000D02*
G75*
G03*
X165817403Y-78740000I-999999J1D01*
G01*
M02*
