%TF.GenerationSoftware,KiCad,Pcbnew,(6.99.0-2504-g6a9c6e8599)*%
%TF.CreationDate,2023-09-08T01:08:47-07:00*%
%TF.ProjectId,EZO_Qwiic,455a4f5f-5177-4696-9963-2e6b69636164,rev?*%
%TF.SameCoordinates,Original*%
%TF.FileFunction,Legend,Top*%
%TF.FilePolarity,Positive*%
%FSLAX46Y46*%
G04 Gerber Fmt 4.6, Leading zero omitted, Abs format (unit mm)*
G04 Created by KiCad (PCBNEW (6.99.0-2504-g6a9c6e8599)) date 2023-09-08 01:08:47*
%MOMM*%
%LPD*%
G01*
G04 APERTURE LIST*
%ADD10C,0.150000*%
%ADD11C,0.120000*%
G04 APERTURE END LIST*
D10*
X153225476Y-89269761D02*
X153368333Y-89317380D01*
X153368333Y-89317380D02*
X153606428Y-89317380D01*
X153606428Y-89317380D02*
X153701666Y-89269761D01*
X153701666Y-89269761D02*
X153749285Y-89222142D01*
X153749285Y-89222142D02*
X153796904Y-89126904D01*
X153796904Y-89126904D02*
X153796904Y-89031666D01*
X153796904Y-89031666D02*
X153749285Y-88936428D01*
X153749285Y-88936428D02*
X153701666Y-88888809D01*
X153701666Y-88888809D02*
X153606428Y-88841190D01*
X153606428Y-88841190D02*
X153415952Y-88793571D01*
X153415952Y-88793571D02*
X153320714Y-88745952D01*
X153320714Y-88745952D02*
X153273095Y-88698333D01*
X153273095Y-88698333D02*
X153225476Y-88603095D01*
X153225476Y-88603095D02*
X153225476Y-88507857D01*
X153225476Y-88507857D02*
X153273095Y-88412619D01*
X153273095Y-88412619D02*
X153320714Y-88365000D01*
X153320714Y-88365000D02*
X153415952Y-88317380D01*
X153415952Y-88317380D02*
X153654047Y-88317380D01*
X153654047Y-88317380D02*
X153796904Y-88365000D01*
X154796904Y-89222142D02*
X154749285Y-89269761D01*
X154749285Y-89269761D02*
X154606428Y-89317380D01*
X154606428Y-89317380D02*
X154511190Y-89317380D01*
X154511190Y-89317380D02*
X154368333Y-89269761D01*
X154368333Y-89269761D02*
X154273095Y-89174523D01*
X154273095Y-89174523D02*
X154225476Y-89079285D01*
X154225476Y-89079285D02*
X154177857Y-88888809D01*
X154177857Y-88888809D02*
X154177857Y-88745952D01*
X154177857Y-88745952D02*
X154225476Y-88555476D01*
X154225476Y-88555476D02*
X154273095Y-88460238D01*
X154273095Y-88460238D02*
X154368333Y-88365000D01*
X154368333Y-88365000D02*
X154511190Y-88317380D01*
X154511190Y-88317380D02*
X154606428Y-88317380D01*
X154606428Y-88317380D02*
X154749285Y-88365000D01*
X154749285Y-88365000D02*
X154796904Y-88412619D01*
X155701666Y-89317380D02*
X155225476Y-89317380D01*
X155225476Y-89317380D02*
X155225476Y-88317380D01*
X153225476Y-86729761D02*
X153368333Y-86777380D01*
X153368333Y-86777380D02*
X153606428Y-86777380D01*
X153606428Y-86777380D02*
X153701666Y-86729761D01*
X153701666Y-86729761D02*
X153749285Y-86682142D01*
X153749285Y-86682142D02*
X153796904Y-86586904D01*
X153796904Y-86586904D02*
X153796904Y-86491666D01*
X153796904Y-86491666D02*
X153749285Y-86396428D01*
X153749285Y-86396428D02*
X153701666Y-86348809D01*
X153701666Y-86348809D02*
X153606428Y-86301190D01*
X153606428Y-86301190D02*
X153415952Y-86253571D01*
X153415952Y-86253571D02*
X153320714Y-86205952D01*
X153320714Y-86205952D02*
X153273095Y-86158333D01*
X153273095Y-86158333D02*
X153225476Y-86063095D01*
X153225476Y-86063095D02*
X153225476Y-85967857D01*
X153225476Y-85967857D02*
X153273095Y-85872619D01*
X153273095Y-85872619D02*
X153320714Y-85825000D01*
X153320714Y-85825000D02*
X153415952Y-85777380D01*
X153415952Y-85777380D02*
X153654047Y-85777380D01*
X153654047Y-85777380D02*
X153796904Y-85825000D01*
X154225476Y-86777380D02*
X154225476Y-85777380D01*
X154225476Y-85777380D02*
X154463571Y-85777380D01*
X154463571Y-85777380D02*
X154606428Y-85825000D01*
X154606428Y-85825000D02*
X154701666Y-85920238D01*
X154701666Y-85920238D02*
X154749285Y-86015476D01*
X154749285Y-86015476D02*
X154796904Y-86205952D01*
X154796904Y-86205952D02*
X154796904Y-86348809D01*
X154796904Y-86348809D02*
X154749285Y-86539285D01*
X154749285Y-86539285D02*
X154701666Y-86634523D01*
X154701666Y-86634523D02*
X154606428Y-86729761D01*
X154606428Y-86729761D02*
X154463571Y-86777380D01*
X154463571Y-86777380D02*
X154225476Y-86777380D01*
X155177857Y-86491666D02*
X155654047Y-86491666D01*
X155082619Y-86777380D02*
X155415952Y-85777380D01*
X155415952Y-85777380D02*
X155749285Y-86777380D01*
X153796904Y-83285000D02*
X153701666Y-83237380D01*
X153701666Y-83237380D02*
X153558809Y-83237380D01*
X153558809Y-83237380D02*
X153415952Y-83285000D01*
X153415952Y-83285000D02*
X153320714Y-83380238D01*
X153320714Y-83380238D02*
X153273095Y-83475476D01*
X153273095Y-83475476D02*
X153225476Y-83665952D01*
X153225476Y-83665952D02*
X153225476Y-83808809D01*
X153225476Y-83808809D02*
X153273095Y-83999285D01*
X153273095Y-83999285D02*
X153320714Y-84094523D01*
X153320714Y-84094523D02*
X153415952Y-84189761D01*
X153415952Y-84189761D02*
X153558809Y-84237380D01*
X153558809Y-84237380D02*
X153654047Y-84237380D01*
X153654047Y-84237380D02*
X153796904Y-84189761D01*
X153796904Y-84189761D02*
X153844523Y-84142142D01*
X153844523Y-84142142D02*
X153844523Y-83808809D01*
X153844523Y-83808809D02*
X153654047Y-83808809D01*
X154273095Y-84237380D02*
X154273095Y-83237380D01*
X154273095Y-83237380D02*
X154844523Y-84237380D01*
X154844523Y-84237380D02*
X154844523Y-83237380D01*
X155320714Y-84237380D02*
X155320714Y-83237380D01*
X155320714Y-83237380D02*
X155558809Y-83237380D01*
X155558809Y-83237380D02*
X155701666Y-83285000D01*
X155701666Y-83285000D02*
X155796904Y-83380238D01*
X155796904Y-83380238D02*
X155844523Y-83475476D01*
X155844523Y-83475476D02*
X155892142Y-83665952D01*
X155892142Y-83665952D02*
X155892142Y-83808809D01*
X155892142Y-83808809D02*
X155844523Y-83999285D01*
X155844523Y-83999285D02*
X155796904Y-84094523D01*
X155796904Y-84094523D02*
X155701666Y-84189761D01*
X155701666Y-84189761D02*
X155558809Y-84237380D01*
X155558809Y-84237380D02*
X155320714Y-84237380D01*
X153463571Y-80697380D02*
X153654047Y-80697380D01*
X153654047Y-80697380D02*
X153749285Y-80745000D01*
X153749285Y-80745000D02*
X153844523Y-80840238D01*
X153844523Y-80840238D02*
X153892142Y-81030714D01*
X153892142Y-81030714D02*
X153892142Y-81364047D01*
X153892142Y-81364047D02*
X153844523Y-81554523D01*
X153844523Y-81554523D02*
X153749285Y-81649761D01*
X153749285Y-81649761D02*
X153654047Y-81697380D01*
X153654047Y-81697380D02*
X153463571Y-81697380D01*
X153463571Y-81697380D02*
X153368333Y-81649761D01*
X153368333Y-81649761D02*
X153273095Y-81554523D01*
X153273095Y-81554523D02*
X153225476Y-81364047D01*
X153225476Y-81364047D02*
X153225476Y-81030714D01*
X153225476Y-81030714D02*
X153273095Y-80840238D01*
X153273095Y-80840238D02*
X153368333Y-80745000D01*
X153368333Y-80745000D02*
X153463571Y-80697380D01*
X154654047Y-81173571D02*
X154320714Y-81173571D01*
X154320714Y-81697380D02*
X154320714Y-80697380D01*
X154320714Y-80697380D02*
X154796904Y-80697380D01*
X155511190Y-81173571D02*
X155177857Y-81173571D01*
X155177857Y-81697380D02*
X155177857Y-80697380D01*
X155177857Y-80697380D02*
X155654047Y-80697380D01*
X153130238Y-78157380D02*
X153463571Y-79157380D01*
X153463571Y-79157380D02*
X153796904Y-78157380D01*
X154701666Y-79062142D02*
X154654047Y-79109761D01*
X154654047Y-79109761D02*
X154511190Y-79157380D01*
X154511190Y-79157380D02*
X154415952Y-79157380D01*
X154415952Y-79157380D02*
X154273095Y-79109761D01*
X154273095Y-79109761D02*
X154177857Y-79014523D01*
X154177857Y-79014523D02*
X154130238Y-78919285D01*
X154130238Y-78919285D02*
X154082619Y-78728809D01*
X154082619Y-78728809D02*
X154082619Y-78585952D01*
X154082619Y-78585952D02*
X154130238Y-78395476D01*
X154130238Y-78395476D02*
X154177857Y-78300238D01*
X154177857Y-78300238D02*
X154273095Y-78205000D01*
X154273095Y-78205000D02*
X154415952Y-78157380D01*
X154415952Y-78157380D02*
X154511190Y-78157380D01*
X154511190Y-78157380D02*
X154654047Y-78205000D01*
X154654047Y-78205000D02*
X154701666Y-78252619D01*
X155701666Y-79062142D02*
X155654047Y-79109761D01*
X155654047Y-79109761D02*
X155511190Y-79157380D01*
X155511190Y-79157380D02*
X155415952Y-79157380D01*
X155415952Y-79157380D02*
X155273095Y-79109761D01*
X155273095Y-79109761D02*
X155177857Y-79014523D01*
X155177857Y-79014523D02*
X155130238Y-78919285D01*
X155130238Y-78919285D02*
X155082619Y-78728809D01*
X155082619Y-78728809D02*
X155082619Y-78585952D01*
X155082619Y-78585952D02*
X155130238Y-78395476D01*
X155130238Y-78395476D02*
X155177857Y-78300238D01*
X155177857Y-78300238D02*
X155273095Y-78205000D01*
X155273095Y-78205000D02*
X155415952Y-78157380D01*
X155415952Y-78157380D02*
X155511190Y-78157380D01*
X155511190Y-78157380D02*
X155654047Y-78205000D01*
X155654047Y-78205000D02*
X155701666Y-78252619D01*
X161613372Y-79349910D02*
X161377669Y-79114208D01*
X161647043Y-78642803D02*
X161983761Y-78979521D01*
X161983761Y-78979521D02*
X161276654Y-79686627D01*
X161276654Y-79686627D02*
X160939937Y-79349910D01*
X160704234Y-79114208D02*
X160232830Y-78642803D01*
X160232830Y-78642803D02*
X161411341Y-78407101D01*
X161411341Y-78407101D02*
X160939936Y-77935696D01*
X159828769Y-78238742D02*
X159694082Y-78104055D01*
X159694082Y-78104055D02*
X159660410Y-78003040D01*
X159660410Y-78003040D02*
X159660410Y-77868353D01*
X159660410Y-77868353D02*
X159761425Y-77699994D01*
X159761425Y-77699994D02*
X159997127Y-77464292D01*
X159997127Y-77464292D02*
X160165486Y-77363276D01*
X160165486Y-77363276D02*
X160300173Y-77363276D01*
X160300173Y-77363276D02*
X160401188Y-77396948D01*
X160401188Y-77396948D02*
X160535875Y-77531635D01*
X160535875Y-77531635D02*
X160569547Y-77632650D01*
X160569547Y-77632650D02*
X160569547Y-77767337D01*
X160569547Y-77767337D02*
X160468532Y-77935696D01*
X160468532Y-77935696D02*
X160232830Y-78171399D01*
X160232830Y-78171399D02*
X160064471Y-78272414D01*
X160064471Y-78272414D02*
X159929784Y-78272414D01*
X159929784Y-78272414D02*
X159828769Y-78238742D01*
X159101459Y-75962532D02*
X159135131Y-76063547D01*
X159135131Y-76063547D02*
X159135131Y-76198234D01*
X159135131Y-76198234D02*
X159135131Y-76400264D01*
X159135131Y-76400264D02*
X159168802Y-76501280D01*
X159168802Y-76501280D02*
X159236146Y-76568623D01*
X159370833Y-76366593D02*
X159404505Y-76467608D01*
X159404505Y-76467608D02*
X159404505Y-76602295D01*
X159404505Y-76602295D02*
X159303489Y-76770654D01*
X159303489Y-76770654D02*
X159067787Y-77006356D01*
X159067787Y-77006356D02*
X158899428Y-77107371D01*
X158899428Y-77107371D02*
X158764741Y-77107371D01*
X158764741Y-77107371D02*
X158663726Y-77073699D01*
X158663726Y-77073699D02*
X158529039Y-76939012D01*
X158529039Y-76939012D02*
X158495367Y-76837997D01*
X158495367Y-76837997D02*
X158495367Y-76703310D01*
X158495367Y-76703310D02*
X158596383Y-76534951D01*
X158596383Y-76534951D02*
X158832085Y-76299249D01*
X158832085Y-76299249D02*
X159000444Y-76198234D01*
X159000444Y-76198234D02*
X159135131Y-76198234D01*
X159135131Y-76198234D02*
X159236146Y-76231906D01*
X159236146Y-76231906D02*
X159370833Y-76366593D01*
X158360680Y-76299249D02*
X158697398Y-75693158D01*
X158697398Y-75693158D02*
X158225993Y-75895188D01*
X158225993Y-75895188D02*
X158428024Y-75423784D01*
X158428024Y-75423784D02*
X157821932Y-75760501D01*
X158023963Y-75019723D02*
X157552558Y-75491127D01*
X157316856Y-75726829D02*
X157384200Y-75726829D01*
X157384200Y-75726829D02*
X157384200Y-75659486D01*
X157384200Y-75659486D02*
X157316856Y-75659486D01*
X157316856Y-75659486D02*
X157316856Y-75726829D01*
X157316856Y-75726829D02*
X157384200Y-75659486D01*
X157687246Y-74683005D02*
X157215841Y-75154410D01*
X156980139Y-75390112D02*
X157047482Y-75390112D01*
X157047482Y-75390112D02*
X157047482Y-75322769D01*
X157047482Y-75322769D02*
X156980139Y-75322769D01*
X156980139Y-75322769D02*
X156980139Y-75390112D01*
X156980139Y-75390112D02*
X157047482Y-75322769D01*
X157013811Y-74076914D02*
X157114826Y-74110586D01*
X157114826Y-74110586D02*
X157249513Y-74245273D01*
X157249513Y-74245273D02*
X157283185Y-74346288D01*
X157283185Y-74346288D02*
X157283185Y-74413632D01*
X157283185Y-74413632D02*
X157249513Y-74514647D01*
X157249513Y-74514647D02*
X157047483Y-74716678D01*
X157047483Y-74716678D02*
X156946467Y-74750349D01*
X156946467Y-74750349D02*
X156879124Y-74750349D01*
X156879124Y-74750349D02*
X156778109Y-74716678D01*
X156778109Y-74716678D02*
X156643422Y-74581991D01*
X156643422Y-74581991D02*
X156609750Y-74480975D01*
X156320173Y-73383276D02*
X156252829Y-73248589D01*
X156252829Y-73248589D02*
X156084471Y-73080230D01*
X156084471Y-73080230D02*
X155983455Y-73046559D01*
X155983455Y-73046559D02*
X155916112Y-73046559D01*
X155916112Y-73046559D02*
X155815097Y-73080230D01*
X155815097Y-73080230D02*
X155747753Y-73147574D01*
X155747753Y-73147574D02*
X155714081Y-73248589D01*
X155714081Y-73248589D02*
X155714081Y-73315933D01*
X155714081Y-73315933D02*
X155747753Y-73416948D01*
X155747753Y-73416948D02*
X155848768Y-73585307D01*
X155848768Y-73585307D02*
X155882440Y-73686322D01*
X155882440Y-73686322D02*
X155882440Y-73753665D01*
X155882440Y-73753665D02*
X155848768Y-73854681D01*
X155848768Y-73854681D02*
X155781425Y-73922024D01*
X155781425Y-73922024D02*
X155680410Y-73955696D01*
X155680410Y-73955696D02*
X155613066Y-73955696D01*
X155613066Y-73955696D02*
X155512051Y-73922024D01*
X155512051Y-73922024D02*
X155343692Y-73753665D01*
X155343692Y-73753665D02*
X155276349Y-73618978D01*
X155646738Y-72642498D02*
X154939631Y-73349604D01*
X155343692Y-72339452D02*
X154973303Y-72709841D01*
X154973303Y-72709841D02*
X154939631Y-72810856D01*
X154939631Y-72810856D02*
X154973303Y-72911872D01*
X154973303Y-72911872D02*
X155074318Y-73012887D01*
X155074318Y-73012887D02*
X155175333Y-73046559D01*
X155175333Y-73046559D02*
X155242677Y-73046559D01*
X155006974Y-72002734D02*
X154535570Y-72474139D01*
X154299868Y-72709841D02*
X154367211Y-72709841D01*
X154367211Y-72709841D02*
X154367211Y-72642497D01*
X154367211Y-72642497D02*
X154299868Y-72642497D01*
X154299868Y-72642497D02*
X154299868Y-72709841D01*
X154299868Y-72709841D02*
X154367211Y-72642497D01*
X154670257Y-71666017D02*
X154198853Y-72137422D01*
X154266196Y-72070078D02*
X154198853Y-72070078D01*
X154198853Y-72070078D02*
X154097837Y-72036406D01*
X154097837Y-72036406D02*
X153996822Y-71935391D01*
X153996822Y-71935391D02*
X153963150Y-71834376D01*
X153963150Y-71834376D02*
X153996822Y-71733361D01*
X153996822Y-71733361D02*
X154367211Y-71362971D01*
X153996822Y-71733361D02*
X153895807Y-71767032D01*
X153895807Y-71767032D02*
X153794792Y-71733361D01*
X153794792Y-71733361D02*
X153693776Y-71632345D01*
X153693776Y-71632345D02*
X153660105Y-71531330D01*
X153660105Y-71531330D02*
X153693776Y-71430315D01*
X153693776Y-71430315D02*
X154064166Y-71059926D01*
X153938478Y-96705761D02*
X153231372Y-95998654D01*
X153231372Y-95998654D02*
X153399730Y-95830295D01*
X153399730Y-95830295D02*
X153534417Y-95762952D01*
X153534417Y-95762952D02*
X153669104Y-95762952D01*
X153669104Y-95762952D02*
X153770120Y-95796624D01*
X153770120Y-95796624D02*
X153938478Y-95897639D01*
X153938478Y-95897639D02*
X154039494Y-95998654D01*
X154039494Y-95998654D02*
X154140509Y-96167013D01*
X154140509Y-96167013D02*
X154174181Y-96268028D01*
X154174181Y-96268028D02*
X154174181Y-96402715D01*
X154174181Y-96402715D02*
X154106837Y-96537402D01*
X154106837Y-96537402D02*
X153938478Y-96705761D01*
X154645585Y-95998654D02*
X153938478Y-95291547D01*
X154780272Y-95190532D02*
X155116989Y-95527250D01*
X154174180Y-95055845D02*
X154780272Y-95190532D01*
X154780272Y-95190532D02*
X154645585Y-94584441D01*
X155776956Y-94463222D02*
X156113673Y-94126505D01*
X155911643Y-94732596D02*
X155440238Y-93789787D01*
X155440238Y-93789787D02*
X156383047Y-94261192D01*
X156450391Y-93251039D02*
X157157498Y-93958146D01*
X156888124Y-93688772D02*
X156854452Y-93789787D01*
X156854452Y-93789787D02*
X156719765Y-93924474D01*
X156719765Y-93924474D02*
X156618750Y-93958146D01*
X156618750Y-93958146D02*
X156551406Y-93958146D01*
X156551406Y-93958146D02*
X156450391Y-93924474D01*
X156450391Y-93924474D02*
X156248360Y-93722444D01*
X156248360Y-93722444D02*
X156214689Y-93621429D01*
X156214689Y-93621429D02*
X156214689Y-93554085D01*
X156214689Y-93554085D02*
X156248360Y-93453070D01*
X156248360Y-93453070D02*
X156383047Y-93318383D01*
X156383047Y-93318383D02*
X156484063Y-93284711D01*
X157090154Y-92611276D02*
X157561559Y-93082680D01*
X156787108Y-92914322D02*
X157157498Y-93284711D01*
X157157498Y-93284711D02*
X157258513Y-93318383D01*
X157258513Y-93318383D02*
X157359528Y-93284711D01*
X157359528Y-93284711D02*
X157460543Y-93183696D01*
X157460543Y-93183696D02*
X157494215Y-93082680D01*
X157494215Y-93082680D02*
X157494215Y-93015337D01*
X158201322Y-92442917D02*
X157830933Y-92072528D01*
X157830933Y-92072528D02*
X157729918Y-92038856D01*
X157729918Y-92038856D02*
X157628902Y-92072528D01*
X157628902Y-92072528D02*
X157494215Y-92207215D01*
X157494215Y-92207215D02*
X157460544Y-92308230D01*
X158167650Y-92409245D02*
X158133979Y-92510261D01*
X158133979Y-92510261D02*
X157965620Y-92678619D01*
X157965620Y-92678619D02*
X157864605Y-92712291D01*
X157864605Y-92712291D02*
X157763589Y-92678619D01*
X157763589Y-92678619D02*
X157696246Y-92611276D01*
X157696246Y-92611276D02*
X157662574Y-92510261D01*
X157662574Y-92510261D02*
X157696246Y-92409245D01*
X157696246Y-92409245D02*
X157864605Y-92240887D01*
X157864605Y-92240887D02*
X157898276Y-92139871D01*
X158066635Y-91634795D02*
X158538040Y-92106200D01*
X158133979Y-91702139D02*
X158133979Y-91634795D01*
X158133979Y-91634795D02*
X158167650Y-91533780D01*
X158167650Y-91533780D02*
X158268666Y-91432764D01*
X158268666Y-91432764D02*
X158369681Y-91399093D01*
X158369681Y-91399093D02*
X158470696Y-91432764D01*
X158470696Y-91432764D02*
X158841085Y-91803154D01*
X159480849Y-91163390D02*
X159110460Y-90793001D01*
X159110460Y-90793001D02*
X159009444Y-90759329D01*
X159009444Y-90759329D02*
X158908429Y-90793001D01*
X158908429Y-90793001D02*
X158773742Y-90927688D01*
X158773742Y-90927688D02*
X158740070Y-91028703D01*
X159447177Y-91129719D02*
X159413505Y-91230734D01*
X159413505Y-91230734D02*
X159245147Y-91399093D01*
X159245147Y-91399093D02*
X159144131Y-91432764D01*
X159144131Y-91432764D02*
X159043116Y-91399093D01*
X159043116Y-91399093D02*
X158975773Y-91331749D01*
X158975773Y-91331749D02*
X158942101Y-91230734D01*
X158942101Y-91230734D02*
X158975773Y-91129719D01*
X158975773Y-91129719D02*
X159144131Y-90961360D01*
X159144131Y-90961360D02*
X159177803Y-90860345D01*
X159649208Y-90052223D02*
X160120612Y-90523627D01*
X159346162Y-90355268D02*
X159716551Y-90725658D01*
X159716551Y-90725658D02*
X159817566Y-90759329D01*
X159817566Y-90759329D02*
X159918582Y-90725658D01*
X159918582Y-90725658D02*
X160019597Y-90624642D01*
X160019597Y-90624642D02*
X160053269Y-90523627D01*
X160053269Y-90523627D02*
X160053269Y-90456284D01*
X159884910Y-89816520D02*
X160154284Y-89547146D01*
X159750223Y-89479803D02*
X160356314Y-90085894D01*
X160356314Y-90085894D02*
X160457330Y-90119566D01*
X160457330Y-90119566D02*
X160558345Y-90085894D01*
X160558345Y-90085894D02*
X160625688Y-90018551D01*
X160794048Y-89782848D02*
X160895063Y-89749176D01*
X160895063Y-89749176D02*
X161029750Y-89614489D01*
X161029750Y-89614489D02*
X161063422Y-89513474D01*
X161063422Y-89513474D02*
X161029750Y-89412459D01*
X161029750Y-89412459D02*
X160996078Y-89378787D01*
X160996078Y-89378787D02*
X160895063Y-89345115D01*
X160895063Y-89345115D02*
X160794048Y-89378787D01*
X160794048Y-89378787D02*
X160693032Y-89479802D01*
X160693032Y-89479802D02*
X160592017Y-89513474D01*
X160592017Y-89513474D02*
X160491002Y-89479802D01*
X160491002Y-89479802D02*
X160457330Y-89446131D01*
X160457330Y-89446131D02*
X160423658Y-89345115D01*
X160423658Y-89345115D02*
X160457330Y-89244100D01*
X160457330Y-89244100D02*
X160558345Y-89143085D01*
X160558345Y-89143085D02*
X160659361Y-89109413D01*
D11*
%TO.C,J1*%
X156150000Y-87625000D02*
X156150000Y-77405000D01*
X158810000Y-90225000D02*
X157480000Y-90225000D01*
X158810000Y-87625000D02*
X158810000Y-77405000D01*
X158810000Y-77405000D02*
X156150000Y-77405000D01*
X158810000Y-87625000D02*
X156150000Y-87625000D01*
X158810000Y-88895000D02*
X158810000Y-90225000D01*
%TO.C,J4*%
X166515000Y-85760000D02*
X166515000Y-81880000D01*
X164545000Y-86930000D02*
X162045000Y-86930000D01*
X164545000Y-80710000D02*
X162045000Y-80710000D01*
X162045000Y-86930000D02*
X162045000Y-85880000D01*
X162045000Y-80710000D02*
X162045000Y-81760000D01*
X162045000Y-85880000D02*
X161055000Y-85880000D01*
%TO.C,J3*%
X147920000Y-99205000D02*
X151800000Y-99205000D01*
X146750000Y-97235000D02*
X146750000Y-94735000D01*
X152970000Y-97235000D02*
X152970000Y-94735000D01*
X146750000Y-94735000D02*
X147800000Y-94735000D01*
X152970000Y-94735000D02*
X151920000Y-94735000D01*
X147800000Y-94735000D02*
X147800000Y-93745000D01*
%TO.C,J2*%
X151800000Y-68435000D02*
X147920000Y-68435000D01*
X152970000Y-70405000D02*
X152970000Y-72905000D01*
X146750000Y-70405000D02*
X146750000Y-72905000D01*
X152970000Y-72905000D02*
X151920000Y-72905000D01*
X146750000Y-72905000D02*
X147800000Y-72905000D01*
X151920000Y-72905000D02*
X151920000Y-73895000D01*
%TD*%
M02*
