%TF.GenerationSoftware,KiCad,Pcbnew,(6.99.0-2504-g6a9c6e8599)*%
%TF.CreationDate,2023-09-08T01:08:46-07:00*%
%TF.ProjectId,EZO_Qwiic,455a4f5f-5177-4696-9963-2e6b69636164,rev?*%
%TF.SameCoordinates,Original*%
%TF.FileFunction,Copper,L2,Bot*%
%TF.FilePolarity,Positive*%
%FSLAX46Y46*%
G04 Gerber Fmt 4.6, Leading zero omitted, Abs format (unit mm)*
G04 Created by KiCad (PCBNEW (6.99.0-2504-g6a9c6e8599)) date 2023-09-08 01:08:46*
%MOMM*%
%LPD*%
G01*
G04 APERTURE LIST*
%TA.AperFunction,ComponentPad*%
%ADD10R,1.700000X1.700000*%
%TD*%
%TA.AperFunction,ComponentPad*%
%ADD11O,1.700000X1.700000*%
%TD*%
%TA.AperFunction,ViaPad*%
%ADD12C,0.800000*%
%TD*%
%TA.AperFunction,Conductor*%
%ADD13C,0.406400*%
%TD*%
G04 APERTURE END LIST*
D10*
%TO.P,J1,1,Pin_1*%
%TO.N,/SCL*%
X157479999Y-88894999D03*
D11*
%TO.P,J1,2,Pin_2*%
%TO.N,/SDA*%
X157479999Y-86354999D03*
%TO.P,J1,3,Pin_3*%
%TO.N,GND*%
X157479999Y-83814999D03*
%TO.P,J1,4,Pin_4*%
%TO.N,/OFF*%
X157479999Y-81274999D03*
%TO.P,J1,5,Pin_5*%
%TO.N,VCC*%
X157479999Y-78734999D03*
%TD*%
D12*
%TO.N,/SDA*%
X154432000Y-90424000D03*
%TO.N,GND*%
X147066000Y-94488000D03*
X152908000Y-72898000D03*
%TO.N,/SCL*%
X159766000Y-82804000D03*
%TO.N,GND*%
X161798000Y-86868000D03*
%TD*%
D13*
%TO.N,/SDA*%
X154432000Y-90424000D02*
X154432000Y-88646000D01*
X154432000Y-88646000D02*
X156464000Y-86614000D01*
X156464000Y-86614000D02*
X157221000Y-86614000D01*
X157221000Y-86614000D02*
X157480000Y-86355000D01*
%TO.N,/SCL*%
X159766000Y-82804000D02*
X159766000Y-86609000D01*
X159766000Y-86609000D02*
X157480000Y-88895000D01*
%TD*%
%TA.AperFunction,Conductor*%
%TO.N,GND*%
G36*
X159820703Y-67820673D02*
G01*
X159868997Y-67823204D01*
X159950898Y-67827496D01*
X160131186Y-67837621D01*
X160143828Y-67838974D01*
X160292411Y-67862507D01*
X160293766Y-67862730D01*
X160316135Y-67866530D01*
X160452609Y-67889719D01*
X160464114Y-67892232D01*
X160613014Y-67932129D01*
X160615285Y-67932761D01*
X160766473Y-67976318D01*
X160776745Y-67979762D01*
X160922066Y-68035545D01*
X160925130Y-68036767D01*
X161069064Y-68096386D01*
X161078044Y-68100526D01*
X161096939Y-68110153D01*
X161217489Y-68171577D01*
X161221234Y-68173566D01*
X161356854Y-68248520D01*
X161364514Y-68253116D01*
X161496217Y-68338645D01*
X161500398Y-68341484D01*
X161607784Y-68417679D01*
X161626454Y-68430926D01*
X161632835Y-68435765D01*
X161719423Y-68505882D01*
X161754988Y-68534682D01*
X161759654Y-68538652D01*
X161874744Y-68641503D01*
X161879879Y-68646359D01*
X161991044Y-68757524D01*
X161995900Y-68762659D01*
X162057469Y-68831554D01*
X162098751Y-68877749D01*
X162102720Y-68882415D01*
X162201635Y-69004565D01*
X162206476Y-69010947D01*
X162295878Y-69136948D01*
X162298789Y-69141235D01*
X162384284Y-69272885D01*
X162388890Y-69280561D01*
X162463827Y-69416149D01*
X162465806Y-69419877D01*
X162527082Y-69540139D01*
X162536881Y-69559370D01*
X162541023Y-69568355D01*
X162600603Y-69712196D01*
X162601825Y-69715258D01*
X162628642Y-69785117D01*
X162657653Y-69860694D01*
X162661090Y-69870943D01*
X162704633Y-70022083D01*
X162705228Y-70024224D01*
X162730757Y-70119500D01*
X162745175Y-70173309D01*
X162747688Y-70184814D01*
X162761949Y-70268744D01*
X162774636Y-70343415D01*
X162774853Y-70344735D01*
X162786898Y-70420791D01*
X162798430Y-70493602D01*
X162799783Y-70506247D01*
X162809867Y-70685811D01*
X162809892Y-70686282D01*
X162816730Y-70816757D01*
X162816903Y-70823351D01*
X162816903Y-77739986D01*
X162816902Y-77740000D01*
X162816900Y-77740000D01*
X162816900Y-77827533D01*
X162847300Y-77999938D01*
X162849182Y-78005108D01*
X162849182Y-78005109D01*
X162878700Y-78086209D01*
X162907176Y-78164446D01*
X162909926Y-78169209D01*
X162983964Y-78297446D01*
X162994708Y-78316056D01*
X163107238Y-78450164D01*
X163241346Y-78562693D01*
X163392957Y-78650226D01*
X163557465Y-78710101D01*
X163562874Y-78711055D01*
X163562875Y-78711055D01*
X163623608Y-78721764D01*
X163729870Y-78740500D01*
X165811896Y-78740500D01*
X165822879Y-78740980D01*
X165862229Y-78744423D01*
X165863596Y-78744550D01*
X165988997Y-78756901D01*
X166009259Y-78760587D01*
X166044015Y-78769900D01*
X166073785Y-78777877D01*
X166077750Y-78779010D01*
X166168814Y-78806634D01*
X166185489Y-78813014D01*
X166251232Y-78843671D01*
X166257377Y-78846743D01*
X166336329Y-78888944D01*
X166349203Y-78896853D01*
X166410251Y-78939599D01*
X166417914Y-78945413D01*
X166485769Y-79001100D01*
X166494931Y-79009404D01*
X166547998Y-79062471D01*
X166556303Y-79071633D01*
X166611988Y-79139486D01*
X166617800Y-79147147D01*
X166660553Y-79208203D01*
X166668458Y-79221072D01*
X166706344Y-79291950D01*
X166710651Y-79300008D01*
X166713724Y-79306154D01*
X166744390Y-79371917D01*
X166750769Y-79388591D01*
X166778381Y-79479615D01*
X166779514Y-79483581D01*
X166796818Y-79548163D01*
X166800504Y-79568422D01*
X166812835Y-79693616D01*
X166812942Y-79694765D01*
X166816425Y-79734570D01*
X166816903Y-79745530D01*
X166816903Y-87894504D01*
X166816425Y-87905466D01*
X166812971Y-87944940D01*
X166812871Y-87946010D01*
X166800502Y-88071599D01*
X166796818Y-88091850D01*
X166782827Y-88144065D01*
X166779541Y-88156330D01*
X166778409Y-88160292D01*
X166750765Y-88251426D01*
X166744388Y-88268095D01*
X166713744Y-88333809D01*
X166710679Y-88339939D01*
X166668445Y-88418951D01*
X166660542Y-88431817D01*
X166617825Y-88492824D01*
X166612021Y-88500474D01*
X166556280Y-88568395D01*
X166547975Y-88577557D01*
X166494960Y-88630572D01*
X166485798Y-88638877D01*
X166417878Y-88694617D01*
X166410216Y-88700430D01*
X166349230Y-88743133D01*
X166336356Y-88751042D01*
X166297330Y-88771902D01*
X166257310Y-88793293D01*
X166251171Y-88796362D01*
X166185514Y-88826978D01*
X166168841Y-88833357D01*
X166077626Y-88861027D01*
X166073705Y-88862148D01*
X166009275Y-88879412D01*
X165989018Y-88883097D01*
X165952946Y-88886650D01*
X165863258Y-88895484D01*
X165862001Y-88895601D01*
X165822912Y-88899021D01*
X165811931Y-88899500D01*
X163817304Y-88899500D01*
X163817300Y-88899502D01*
X163817288Y-88899503D01*
X163817154Y-88899503D01*
X163735375Y-88899502D01*
X163729871Y-88899502D01*
X163632119Y-88916739D01*
X163562880Y-88928947D01*
X163562876Y-88928948D01*
X163557466Y-88929902D01*
X163392958Y-88989777D01*
X163388199Y-88992525D01*
X163388196Y-88992526D01*
X163315653Y-89034409D01*
X163241348Y-89077309D01*
X163107240Y-89189838D01*
X162994711Y-89323945D01*
X162907178Y-89475556D01*
X162847302Y-89640063D01*
X162816903Y-89812468D01*
X162816903Y-96816706D01*
X162816730Y-96823300D01*
X162809937Y-96952919D01*
X162809912Y-96953390D01*
X162799782Y-97133781D01*
X162798429Y-97146427D01*
X162774904Y-97294958D01*
X162774675Y-97296352D01*
X162769619Y-97326111D01*
X162747681Y-97455228D01*
X162745174Y-97466706D01*
X162705272Y-97615621D01*
X162704659Y-97617825D01*
X162661081Y-97769085D01*
X162657637Y-97779357D01*
X162601877Y-97924617D01*
X162600655Y-97927681D01*
X162541010Y-98071676D01*
X162536868Y-98080661D01*
X162465849Y-98220043D01*
X162463860Y-98223788D01*
X162388870Y-98359474D01*
X162384265Y-98367150D01*
X162298834Y-98498703D01*
X162295921Y-98502992D01*
X162206440Y-98629103D01*
X162201600Y-98635484D01*
X162102770Y-98757529D01*
X162098801Y-98762195D01*
X161995866Y-98877379D01*
X161991010Y-98882514D01*
X161879916Y-98993608D01*
X161874780Y-98998464D01*
X161759604Y-99101391D01*
X161754940Y-99105360D01*
X161632891Y-99204194D01*
X161626509Y-99209034D01*
X161500367Y-99298537D01*
X161496091Y-99301441D01*
X161436891Y-99339886D01*
X161364565Y-99386855D01*
X161356889Y-99391460D01*
X161221160Y-99466474D01*
X161217415Y-99468463D01*
X161078076Y-99539460D01*
X161069091Y-99543602D01*
X160925051Y-99603265D01*
X160921988Y-99604487D01*
X160868408Y-99625055D01*
X160776767Y-99660233D01*
X160766511Y-99663672D01*
X160615111Y-99707290D01*
X160612875Y-99707911D01*
X160596336Y-99712343D01*
X160464144Y-99747763D01*
X160452639Y-99750276D01*
X160293526Y-99777311D01*
X160292131Y-99777540D01*
X160143859Y-99801024D01*
X160131212Y-99802377D01*
X159950090Y-99812548D01*
X159949621Y-99812573D01*
X159820761Y-99819327D01*
X159814166Y-99819500D01*
X146828957Y-99819500D01*
X146806132Y-99817415D01*
X146796062Y-99815560D01*
X146712407Y-99800151D01*
X146680934Y-99789936D01*
X146518457Y-99712343D01*
X146503289Y-99703764D01*
X146424869Y-99651942D01*
X146415082Y-99644774D01*
X146390711Y-99625055D01*
X146263322Y-99521983D01*
X146253098Y-99512741D01*
X146158824Y-99417645D01*
X146113183Y-99371605D01*
X146104003Y-99361268D01*
X146087020Y-99339886D01*
X145982887Y-99208780D01*
X145977400Y-99201324D01*
X145961156Y-99177460D01*
X145954822Y-99167116D01*
X145864077Y-99001491D01*
X145857469Y-98987439D01*
X145852288Y-98974388D01*
X145846102Y-98953860D01*
X145820608Y-98832787D01*
X145817904Y-98806825D01*
X145817904Y-95820000D01*
X157112135Y-95820000D01*
X157131181Y-96074157D01*
X157187895Y-96322637D01*
X157281010Y-96559888D01*
X157408444Y-96780612D01*
X157411376Y-96784289D01*
X157411379Y-96784293D01*
X157564418Y-96976197D01*
X157567353Y-96979877D01*
X157754186Y-97153232D01*
X157758085Y-97155890D01*
X157957443Y-97291810D01*
X157964769Y-97296805D01*
X158194399Y-97407389D01*
X158311893Y-97443631D01*
X158433438Y-97481123D01*
X158433441Y-97481124D01*
X158437945Y-97482513D01*
X158535245Y-97497179D01*
X158685308Y-97519798D01*
X158685313Y-97519798D01*
X158689968Y-97520500D01*
X158944838Y-97520500D01*
X158949493Y-97519798D01*
X158949498Y-97519798D01*
X159099561Y-97497179D01*
X159196861Y-97482513D01*
X159201365Y-97481124D01*
X159201368Y-97481123D01*
X159322913Y-97443631D01*
X159440407Y-97407389D01*
X159670037Y-97296805D01*
X159677364Y-97291810D01*
X159876721Y-97155890D01*
X159880620Y-97153232D01*
X160067453Y-96979877D01*
X160070388Y-96976197D01*
X160223427Y-96784293D01*
X160223430Y-96784289D01*
X160226362Y-96780612D01*
X160353796Y-96559888D01*
X160446911Y-96322637D01*
X160503625Y-96074157D01*
X160522671Y-95820000D01*
X160503625Y-95565843D01*
X160446911Y-95317363D01*
X160353796Y-95080112D01*
X160226362Y-94859388D01*
X160223430Y-94855711D01*
X160223427Y-94855707D01*
X160070388Y-94663803D01*
X160070386Y-94663801D01*
X160067453Y-94660123D01*
X159880620Y-94486768D01*
X159766791Y-94409161D01*
X159673933Y-94345851D01*
X159673931Y-94345850D01*
X159670037Y-94343195D01*
X159440407Y-94232611D01*
X159318634Y-94195049D01*
X159201368Y-94158877D01*
X159201365Y-94158876D01*
X159196861Y-94157487D01*
X159099561Y-94142821D01*
X158949498Y-94120202D01*
X158949493Y-94120202D01*
X158944838Y-94119500D01*
X158689968Y-94119500D01*
X158685313Y-94120202D01*
X158685308Y-94120202D01*
X158535245Y-94142821D01*
X158437945Y-94157487D01*
X158433441Y-94158876D01*
X158433438Y-94158877D01*
X158316172Y-94195049D01*
X158194399Y-94232611D01*
X157964769Y-94343195D01*
X157960875Y-94345850D01*
X157960873Y-94345851D01*
X157868015Y-94409161D01*
X157754186Y-94486768D01*
X157567353Y-94660123D01*
X157564420Y-94663801D01*
X157564418Y-94663803D01*
X157411379Y-94855707D01*
X157411376Y-94855711D01*
X157408444Y-94859388D01*
X157281010Y-95080112D01*
X157187895Y-95317363D01*
X157131181Y-95565843D01*
X157112135Y-95820000D01*
X145817904Y-95820000D01*
X145817904Y-92816554D01*
X145819989Y-92793728D01*
X145837254Y-92700002D01*
X145847469Y-92668530D01*
X145925060Y-92506053D01*
X145933641Y-92490882D01*
X145985464Y-92412464D01*
X145992630Y-92402679D01*
X146115413Y-92250926D01*
X146124646Y-92240711D01*
X146265802Y-92100776D01*
X146276139Y-92091597D01*
X146428614Y-91970491D01*
X146436077Y-91964999D01*
X146459941Y-91948754D01*
X146470294Y-91942414D01*
X146635914Y-91851672D01*
X146649974Y-91845061D01*
X146663023Y-91839882D01*
X146683541Y-91833699D01*
X146804616Y-91808204D01*
X146830579Y-91805500D01*
X151897349Y-91805500D01*
X151897396Y-91805510D01*
X151897450Y-91805500D01*
X151897502Y-91805500D01*
X151897544Y-91805483D01*
X151908512Y-91803463D01*
X151908519Y-91803462D01*
X152006706Y-91785375D01*
X152019029Y-91783105D01*
X152019096Y-91783101D01*
X152019125Y-91783087D01*
X152019158Y-91783081D01*
X152019215Y-91783044D01*
X152030464Y-91777672D01*
X152030467Y-91777671D01*
X152145710Y-91722635D01*
X152204635Y-91694494D01*
X152204672Y-91694487D01*
X152204729Y-91694449D01*
X152204784Y-91694423D01*
X152204806Y-91694398D01*
X152210570Y-91690589D01*
X152210577Y-91690585D01*
X152295509Y-91634459D01*
X152295808Y-91634912D01*
X152295866Y-91634870D01*
X152295533Y-91634452D01*
X152295592Y-91634405D01*
X152295653Y-91634364D01*
X152295952Y-91634808D01*
X152296009Y-91634767D01*
X152295667Y-91634344D01*
X152456161Y-91504485D01*
X152457444Y-91503447D01*
X152457468Y-91503437D01*
X152457515Y-91503389D01*
X152457575Y-91503341D01*
X152457590Y-91503314D01*
X152607182Y-91352418D01*
X152607321Y-91352556D01*
X152607351Y-91352522D01*
X152607205Y-91352405D01*
X152607246Y-91352354D01*
X152607300Y-91352299D01*
X152607433Y-91352430D01*
X152607466Y-91352393D01*
X152607312Y-91352271D01*
X152612451Y-91345801D01*
X152612452Y-91345800D01*
X152623016Y-91332500D01*
X152735541Y-91190827D01*
X152736264Y-91191401D01*
X152736314Y-91191333D01*
X152735557Y-91190817D01*
X152735602Y-91190751D01*
X152735652Y-91190688D01*
X152736370Y-91191258D01*
X152736421Y-91191189D01*
X152735658Y-91190669D01*
X152757833Y-91158095D01*
X152757866Y-91158046D01*
X152757884Y-91158032D01*
X152757919Y-91157968D01*
X152757962Y-91157905D01*
X152758258Y-91158107D01*
X152758289Y-91158056D01*
X152757967Y-91157880D01*
X152758781Y-91156395D01*
X152758781Y-91156393D01*
X152855331Y-90980173D01*
X152855351Y-90980152D01*
X152855374Y-90980093D01*
X152855409Y-90980030D01*
X152855413Y-90979997D01*
X152867413Y-90949765D01*
X152867439Y-90949727D01*
X152867451Y-90949669D01*
X152867471Y-90949619D01*
X152867470Y-90949578D01*
X152897884Y-90805146D01*
X152897903Y-90805099D01*
X152897903Y-90805054D01*
X152897913Y-90805007D01*
X152897903Y-90804953D01*
X152897903Y-90424000D01*
X153518496Y-90424000D01*
X153538458Y-90613928D01*
X153597473Y-90795556D01*
X153600776Y-90801278D01*
X153600777Y-90801279D01*
X153603010Y-90805146D01*
X153692960Y-90960944D01*
X153820747Y-91102866D01*
X153919843Y-91174864D01*
X153940901Y-91190163D01*
X153975248Y-91215118D01*
X153981276Y-91217802D01*
X153981278Y-91217803D01*
X154143681Y-91290109D01*
X154149712Y-91292794D01*
X154243112Y-91312647D01*
X154330056Y-91331128D01*
X154330061Y-91331128D01*
X154336513Y-91332500D01*
X154527487Y-91332500D01*
X154533939Y-91331128D01*
X154533944Y-91331128D01*
X154620888Y-91312647D01*
X154714288Y-91292794D01*
X154720319Y-91290109D01*
X154882722Y-91217803D01*
X154882724Y-91217802D01*
X154888752Y-91215118D01*
X154923100Y-91190163D01*
X154944157Y-91174864D01*
X155043253Y-91102866D01*
X155171040Y-90960944D01*
X155260990Y-90805146D01*
X155263223Y-90801279D01*
X155263224Y-90801278D01*
X155266527Y-90795556D01*
X155325542Y-90613928D01*
X155345504Y-90424000D01*
X155325542Y-90234072D01*
X155266527Y-90052444D01*
X155226297Y-89982763D01*
X155174343Y-89892776D01*
X155174340Y-89892772D01*
X155171040Y-89887056D01*
X155167609Y-89883245D01*
X155143700Y-89809660D01*
X155143700Y-88992986D01*
X155163702Y-88924865D01*
X155180605Y-88903891D01*
X155906405Y-88178091D01*
X155968717Y-88144065D01*
X156039532Y-88149130D01*
X156096368Y-88191677D01*
X156121179Y-88258197D01*
X156121500Y-88267186D01*
X156121500Y-89793638D01*
X156121860Y-89796985D01*
X156121860Y-89796988D01*
X156123222Y-89809660D01*
X156128011Y-89854201D01*
X156179111Y-89991204D01*
X156184510Y-89998416D01*
X156184511Y-89998418D01*
X156224955Y-90052444D01*
X156266739Y-90108261D01*
X156383796Y-90195889D01*
X156520799Y-90246989D01*
X156557705Y-90250957D01*
X156578012Y-90253140D01*
X156578015Y-90253140D01*
X156581362Y-90253500D01*
X158378638Y-90253500D01*
X158381985Y-90253140D01*
X158381988Y-90253140D01*
X158402295Y-90250957D01*
X158439201Y-90246989D01*
X158576204Y-90195889D01*
X158693261Y-90108261D01*
X158735045Y-90052444D01*
X158775489Y-89998418D01*
X158775490Y-89998416D01*
X158780889Y-89991204D01*
X158831989Y-89854201D01*
X158836778Y-89809660D01*
X158838140Y-89796988D01*
X158838140Y-89796985D01*
X158838500Y-89793638D01*
X158838500Y-88595186D01*
X158858502Y-88527065D01*
X158875405Y-88506091D01*
X160251340Y-87130156D01*
X160256882Y-87124938D01*
X160296923Y-87089466D01*
X160296927Y-87089462D01*
X160302628Y-87084411D01*
X160308348Y-87076124D01*
X160337350Y-87034109D01*
X160341850Y-87027991D01*
X160379532Y-86979893D01*
X160383756Y-86970508D01*
X160394958Y-86950647D01*
X160396481Y-86948441D01*
X160396482Y-86948439D01*
X160400807Y-86942173D01*
X160422477Y-86885034D01*
X160425390Y-86878002D01*
X160447336Y-86829240D01*
X160450465Y-86822288D01*
X160452321Y-86812162D01*
X160458444Y-86790195D01*
X160459393Y-86787694D01*
X160459393Y-86787693D01*
X160462094Y-86780572D01*
X160469459Y-86719919D01*
X160470604Y-86712397D01*
X160480245Y-86659786D01*
X160480245Y-86659784D01*
X160481619Y-86652287D01*
X160477930Y-86591305D01*
X160477700Y-86583697D01*
X160477700Y-83418340D01*
X160501609Y-83344755D01*
X160505040Y-83340944D01*
X160508340Y-83335228D01*
X160508343Y-83335224D01*
X160597223Y-83181279D01*
X160597224Y-83181278D01*
X160600527Y-83175556D01*
X160659542Y-82993928D01*
X160661616Y-82974201D01*
X160678814Y-82810565D01*
X160679504Y-82804000D01*
X160659542Y-82614072D01*
X160600527Y-82432444D01*
X160505040Y-82267056D01*
X160377253Y-82125134D01*
X160222752Y-82012882D01*
X160216724Y-82010198D01*
X160216722Y-82010197D01*
X160054319Y-81937891D01*
X160054318Y-81937891D01*
X160048288Y-81935206D01*
X159954888Y-81915353D01*
X159867944Y-81896872D01*
X159867939Y-81896872D01*
X159861487Y-81895500D01*
X159670513Y-81895500D01*
X159664061Y-81896872D01*
X159664056Y-81896872D01*
X159577112Y-81915353D01*
X159483712Y-81935206D01*
X159477682Y-81937891D01*
X159477681Y-81937891D01*
X159315278Y-82010197D01*
X159315276Y-82010198D01*
X159309248Y-82012882D01*
X159154747Y-82125134D01*
X159026960Y-82267056D01*
X158931473Y-82432444D01*
X158872458Y-82614072D01*
X158852496Y-82804000D01*
X158853186Y-82810565D01*
X158870385Y-82974201D01*
X158872458Y-82993928D01*
X158874498Y-83000206D01*
X158883315Y-83027343D01*
X158885342Y-83098311D01*
X158848680Y-83159109D01*
X158784967Y-83190434D01*
X158714433Y-83182340D01*
X158657999Y-83135195D01*
X158558177Y-82982407D01*
X158551790Y-82974201D01*
X158406432Y-82816300D01*
X158398789Y-82809263D01*
X158229411Y-82677431D01*
X158220719Y-82671752D01*
X158191794Y-82656099D01*
X158141403Y-82606086D01*
X158126051Y-82536769D01*
X158150612Y-82470156D01*
X158191792Y-82434472D01*
X158225576Y-82416189D01*
X158403240Y-82277906D01*
X158543878Y-82125134D01*
X158552194Y-82116101D01*
X158552197Y-82116097D01*
X158555722Y-82112268D01*
X158586552Y-82065079D01*
X158676008Y-81928157D01*
X158676010Y-81928153D01*
X158678860Y-81923791D01*
X158691270Y-81895500D01*
X158767200Y-81722394D01*
X158769296Y-81717616D01*
X158824564Y-81499368D01*
X158843156Y-81275000D01*
X158824564Y-81050632D01*
X158769296Y-80832384D01*
X158678860Y-80626209D01*
X158555722Y-80437732D01*
X158552197Y-80433903D01*
X158552194Y-80433899D01*
X158406772Y-80275931D01*
X158403240Y-80272094D01*
X158225576Y-80133811D01*
X158192320Y-80115814D01*
X158141929Y-80065801D01*
X158126577Y-79996484D01*
X158151137Y-79929871D01*
X158192320Y-79894186D01*
X158220995Y-79878668D01*
X158225576Y-79876189D01*
X158403240Y-79737906D01*
X158481892Y-79652468D01*
X158552194Y-79576101D01*
X158552197Y-79576097D01*
X158555722Y-79572268D01*
X158613664Y-79483581D01*
X158676008Y-79388157D01*
X158676010Y-79388153D01*
X158678860Y-79383791D01*
X158684069Y-79371917D01*
X158767200Y-79182394D01*
X158769296Y-79177616D01*
X158824564Y-78959368D01*
X158825721Y-78945413D01*
X158842726Y-78740189D01*
X158843156Y-78735000D01*
X158824564Y-78510632D01*
X158810145Y-78453694D01*
X158770578Y-78297446D01*
X158770578Y-78297445D01*
X158769296Y-78292384D01*
X158678860Y-78086209D01*
X158622497Y-77999938D01*
X158558573Y-77902096D01*
X158555722Y-77897732D01*
X158552197Y-77893903D01*
X158552194Y-77893899D01*
X158406772Y-77735931D01*
X158403240Y-77732094D01*
X158225576Y-77593811D01*
X158027574Y-77486658D01*
X157814635Y-77413556D01*
X157809501Y-77412699D01*
X157809496Y-77412698D01*
X157597706Y-77377357D01*
X157597704Y-77377357D01*
X157592569Y-77376500D01*
X157367431Y-77376500D01*
X157362296Y-77377357D01*
X157362294Y-77377357D01*
X157150504Y-77412698D01*
X157150499Y-77412699D01*
X157145365Y-77413556D01*
X156932426Y-77486658D01*
X156734424Y-77593811D01*
X156556760Y-77732094D01*
X156553228Y-77735931D01*
X156407806Y-77893899D01*
X156407803Y-77893903D01*
X156404278Y-77897732D01*
X156401427Y-77902096D01*
X156337504Y-77999938D01*
X156281140Y-78086209D01*
X156190704Y-78292384D01*
X156189422Y-78297445D01*
X156189422Y-78297446D01*
X156149855Y-78453694D01*
X156135436Y-78510632D01*
X156116844Y-78735000D01*
X156117274Y-78740189D01*
X156134280Y-78945413D01*
X156135436Y-78959368D01*
X156190704Y-79177616D01*
X156192800Y-79182394D01*
X156275932Y-79371917D01*
X156281140Y-79383791D01*
X156283990Y-79388153D01*
X156283992Y-79388157D01*
X156346336Y-79483581D01*
X156404278Y-79572268D01*
X156407803Y-79576097D01*
X156407806Y-79576101D01*
X156478108Y-79652468D01*
X156556760Y-79737906D01*
X156734424Y-79876189D01*
X156739005Y-79878668D01*
X156767680Y-79894186D01*
X156818071Y-79944199D01*
X156833423Y-80013516D01*
X156808863Y-80080129D01*
X156767681Y-80115813D01*
X156734424Y-80133811D01*
X156556760Y-80272094D01*
X156553228Y-80275931D01*
X156407806Y-80433899D01*
X156407803Y-80433903D01*
X156404278Y-80437732D01*
X156281140Y-80626209D01*
X156190704Y-80832384D01*
X156135436Y-81050632D01*
X156116844Y-81275000D01*
X156135436Y-81499368D01*
X156190704Y-81717616D01*
X156192800Y-81722394D01*
X156268731Y-81895500D01*
X156281140Y-81923791D01*
X156283990Y-81928153D01*
X156283992Y-81928157D01*
X156373448Y-82065079D01*
X156404278Y-82112268D01*
X156407803Y-82116097D01*
X156407806Y-82116101D01*
X156416122Y-82125134D01*
X156556760Y-82277906D01*
X156734424Y-82416189D01*
X156768208Y-82434472D01*
X156818597Y-82484485D01*
X156833949Y-82553802D01*
X156809388Y-82620415D01*
X156768206Y-82656099D01*
X156739281Y-82671752D01*
X156730589Y-82677431D01*
X156561211Y-82809263D01*
X156553568Y-82816300D01*
X156408210Y-82974201D01*
X156401823Y-82982407D01*
X156284431Y-83162087D01*
X156279488Y-83171222D01*
X156193270Y-83367777D01*
X156189900Y-83377592D01*
X156147903Y-83543439D01*
X156148433Y-83557530D01*
X156156855Y-83561000D01*
X157608000Y-83561000D01*
X157676121Y-83581002D01*
X157722614Y-83634658D01*
X157734000Y-83687000D01*
X157734000Y-83943000D01*
X157713998Y-84011121D01*
X157660342Y-84057614D01*
X157608000Y-84069000D01*
X156161571Y-84069000D01*
X156148040Y-84072973D01*
X156146744Y-84081986D01*
X156189900Y-84252408D01*
X156193270Y-84262223D01*
X156279488Y-84458778D01*
X156284431Y-84467913D01*
X156401823Y-84647593D01*
X156408210Y-84655799D01*
X156553568Y-84813700D01*
X156561211Y-84820737D01*
X156730589Y-84952569D01*
X156739281Y-84958248D01*
X156768206Y-84973901D01*
X156818597Y-85023914D01*
X156833949Y-85093231D01*
X156809388Y-85159844D01*
X156768208Y-85195528D01*
X156734424Y-85213811D01*
X156556760Y-85352094D01*
X156553228Y-85355931D01*
X156407806Y-85513899D01*
X156407803Y-85513903D01*
X156404278Y-85517732D01*
X156281140Y-85706209D01*
X156190704Y-85912384D01*
X156190148Y-85912140D01*
X156151235Y-85967076D01*
X156135045Y-85977593D01*
X156130827Y-85979193D01*
X156122431Y-85984988D01*
X156122353Y-85985042D01*
X156102495Y-85996242D01*
X156093107Y-86000467D01*
X156045001Y-86038156D01*
X156038893Y-86042650D01*
X155988589Y-86077372D01*
X155983538Y-86083073D01*
X155983534Y-86083077D01*
X155948062Y-86123118D01*
X155942844Y-86128660D01*
X153946660Y-88124844D01*
X153941118Y-88130062D01*
X153901077Y-88165534D01*
X153901073Y-88165538D01*
X153895372Y-88170589D01*
X153860650Y-88220893D01*
X153856149Y-88227010D01*
X153824673Y-88267186D01*
X153818467Y-88275107D01*
X153814244Y-88284491D01*
X153803042Y-88304353D01*
X153797193Y-88312827D01*
X153794491Y-88319952D01*
X153775524Y-88369964D01*
X153772616Y-88376986D01*
X153747535Y-88432713D01*
X153745680Y-88442837D01*
X153739557Y-88464801D01*
X153735906Y-88474428D01*
X153729515Y-88527065D01*
X153728543Y-88535068D01*
X153727400Y-88542580D01*
X153716380Y-88602713D01*
X153716840Y-88610318D01*
X153716840Y-88610320D01*
X153720070Y-88663706D01*
X153720300Y-88671315D01*
X153720300Y-89809660D01*
X153696391Y-89883245D01*
X153692960Y-89887056D01*
X153689660Y-89892772D01*
X153689657Y-89892776D01*
X153637703Y-89982763D01*
X153597473Y-90052444D01*
X153538458Y-90234072D01*
X153518496Y-90424000D01*
X152897903Y-90424000D01*
X152897903Y-76835054D01*
X152897913Y-76835007D01*
X152897903Y-76834953D01*
X152897903Y-76834901D01*
X152897886Y-76834859D01*
X152875507Y-76713372D01*
X152875504Y-76713306D01*
X152875490Y-76713276D01*
X152875484Y-76713245D01*
X152875449Y-76713191D01*
X152786895Y-76527760D01*
X152786889Y-76527730D01*
X152786858Y-76527684D01*
X152786827Y-76527618D01*
X152786797Y-76527591D01*
X152726862Y-76436894D01*
X152727012Y-76436795D01*
X152726885Y-76436623D01*
X152726745Y-76436736D01*
X152596672Y-76275977D01*
X152595851Y-76274962D01*
X152595840Y-76274935D01*
X152595788Y-76274884D01*
X152595744Y-76274829D01*
X152595719Y-76274815D01*
X152444823Y-76125223D01*
X152444984Y-76125061D01*
X152444946Y-76125027D01*
X152444809Y-76125198D01*
X152444753Y-76125153D01*
X152444702Y-76125103D01*
X152444855Y-76124946D01*
X152444818Y-76124913D01*
X152444676Y-76125092D01*
X152438003Y-76119792D01*
X152283232Y-75996863D01*
X152283651Y-75996336D01*
X152283450Y-75996187D01*
X152283071Y-75996744D01*
X152266641Y-75985559D01*
X152250499Y-75974571D01*
X152250449Y-75974537D01*
X152250435Y-75974519D01*
X152250371Y-75974484D01*
X152250308Y-75974441D01*
X152250510Y-75974145D01*
X152250459Y-75974114D01*
X152250283Y-75974436D01*
X152238876Y-75968186D01*
X152081607Y-75882019D01*
X152081606Y-75882019D01*
X152072579Y-75877073D01*
X152072556Y-75877051D01*
X152072494Y-75877026D01*
X152072433Y-75876993D01*
X152072401Y-75876989D01*
X152056932Y-75870849D01*
X152052026Y-75868902D01*
X152052024Y-75868901D01*
X152042169Y-75864990D01*
X152042131Y-75864964D01*
X152042073Y-75864952D01*
X152042023Y-75864932D01*
X152041982Y-75864933D01*
X151897550Y-75834520D01*
X151897502Y-75834500D01*
X151897456Y-75834500D01*
X151897409Y-75834490D01*
X151897355Y-75834500D01*
X146828957Y-75834500D01*
X146806132Y-75832415D01*
X146796062Y-75830560D01*
X146712407Y-75815151D01*
X146680934Y-75804936D01*
X146518457Y-75727343D01*
X146503289Y-75718764D01*
X146424869Y-75666942D01*
X146415082Y-75659774D01*
X146263325Y-75536986D01*
X146253098Y-75527741D01*
X146113187Y-75386610D01*
X146104003Y-75376268D01*
X145982887Y-75223780D01*
X145977399Y-75216323D01*
X145961161Y-75192467D01*
X145954820Y-75182111D01*
X145864075Y-75016485D01*
X145857465Y-75002427D01*
X145852287Y-74989382D01*
X145846102Y-74968859D01*
X145820608Y-74847787D01*
X145817904Y-74821825D01*
X145817904Y-71820000D01*
X157112135Y-71820000D01*
X157131181Y-72074157D01*
X157187895Y-72322637D01*
X157281010Y-72559888D01*
X157408444Y-72780612D01*
X157411376Y-72784289D01*
X157411379Y-72784293D01*
X157564418Y-72976197D01*
X157567353Y-72979877D01*
X157754186Y-73153232D01*
X157758085Y-73155890D01*
X157957443Y-73291810D01*
X157964769Y-73296805D01*
X158194399Y-73407389D01*
X158316172Y-73444951D01*
X158433438Y-73481123D01*
X158433441Y-73481124D01*
X158437945Y-73482513D01*
X158535245Y-73497179D01*
X158685308Y-73519798D01*
X158685313Y-73519798D01*
X158689968Y-73520500D01*
X158944838Y-73520500D01*
X158949493Y-73519798D01*
X158949498Y-73519798D01*
X159099561Y-73497179D01*
X159196861Y-73482513D01*
X159201365Y-73481124D01*
X159201368Y-73481123D01*
X159318634Y-73444951D01*
X159440407Y-73407389D01*
X159670037Y-73296805D01*
X159677364Y-73291810D01*
X159876721Y-73155890D01*
X159880620Y-73153232D01*
X160067453Y-72979877D01*
X160070388Y-72976197D01*
X160223427Y-72784293D01*
X160223430Y-72784289D01*
X160226362Y-72780612D01*
X160353796Y-72559888D01*
X160446911Y-72322637D01*
X160503625Y-72074157D01*
X160522671Y-71820000D01*
X160503625Y-71565843D01*
X160446911Y-71317363D01*
X160353796Y-71080112D01*
X160226362Y-70859388D01*
X160223430Y-70855711D01*
X160223427Y-70855707D01*
X160070388Y-70663803D01*
X160070386Y-70663801D01*
X160067453Y-70660123D01*
X159880620Y-70486768D01*
X159679980Y-70349974D01*
X159673933Y-70345851D01*
X159673931Y-70345850D01*
X159670037Y-70343195D01*
X159440407Y-70232611D01*
X159248155Y-70173309D01*
X159201368Y-70158877D01*
X159201365Y-70158876D01*
X159196861Y-70157487D01*
X159099561Y-70142821D01*
X158949498Y-70120202D01*
X158949493Y-70120202D01*
X158944838Y-70119500D01*
X158689968Y-70119500D01*
X158685313Y-70120202D01*
X158685308Y-70120202D01*
X158535245Y-70142821D01*
X158437945Y-70157487D01*
X158433441Y-70158876D01*
X158433438Y-70158877D01*
X158386651Y-70173309D01*
X158194399Y-70232611D01*
X157964769Y-70343195D01*
X157960875Y-70345850D01*
X157960873Y-70345851D01*
X157954826Y-70349974D01*
X157754186Y-70486768D01*
X157567353Y-70660123D01*
X157564420Y-70663801D01*
X157564418Y-70663803D01*
X157411379Y-70855707D01*
X157411376Y-70855711D01*
X157408444Y-70859388D01*
X157281010Y-71080112D01*
X157187895Y-71317363D01*
X157131181Y-71565843D01*
X157112135Y-71820000D01*
X145817904Y-71820000D01*
X145817904Y-68831554D01*
X145819989Y-68808728D01*
X145837254Y-68715002D01*
X145847469Y-68683530D01*
X145925060Y-68521053D01*
X145933641Y-68505882D01*
X145985464Y-68427464D01*
X145992630Y-68417679D01*
X146115417Y-68265922D01*
X146124646Y-68255711D01*
X146265802Y-68115776D01*
X146276139Y-68106597D01*
X146428614Y-67985491D01*
X146436077Y-67979999D01*
X146459941Y-67963754D01*
X146470294Y-67957414D01*
X146635914Y-67866672D01*
X146649974Y-67860061D01*
X146663023Y-67854882D01*
X146683541Y-67848699D01*
X146804616Y-67823204D01*
X146830579Y-67820500D01*
X159814109Y-67820500D01*
X159820703Y-67820673D01*
G37*
%TD.AperFunction*%
%TD*%
M02*
