%TF.GenerationSoftware,KiCad,Pcbnew,(6.99.0-2504-g6a9c6e8599)*%
%TF.CreationDate,2023-09-08T01:08:46-07:00*%
%TF.ProjectId,EZO_Qwiic,455a4f5f-5177-4696-9963-2e6b69636164,rev?*%
%TF.SameCoordinates,Original*%
%TF.FileFunction,Copper,L1,Top*%
%TF.FilePolarity,Positive*%
%FSLAX46Y46*%
G04 Gerber Fmt 4.6, Leading zero omitted, Abs format (unit mm)*
G04 Created by KiCad (PCBNEW (6.99.0-2504-g6a9c6e8599)) date 2023-09-08 01:08:46*
%MOMM*%
%LPD*%
G01*
G04 APERTURE LIST*
G04 Aperture macros list*
%AMRoundRect*
0 Rectangle with rounded corners*
0 $1 Rounding radius*
0 $2 $3 $4 $5 $6 $7 $8 $9 X,Y pos of 4 corners*
0 Add a 4 corners polygon primitive as box body*
4,1,4,$2,$3,$4,$5,$6,$7,$8,$9,$2,$3,0*
0 Add four circle primitives for the rounded corners*
1,1,$1+$1,$2,$3*
1,1,$1+$1,$4,$5*
1,1,$1+$1,$6,$7*
1,1,$1+$1,$8,$9*
0 Add four rect primitives between the rounded corners*
20,1,$1+$1,$2,$3,$4,$5,0*
20,1,$1+$1,$4,$5,$6,$7,0*
20,1,$1+$1,$6,$7,$8,$9,0*
20,1,$1+$1,$8,$9,$2,$3,0*%
G04 Aperture macros list end*
%TA.AperFunction,ComponentPad*%
%ADD10R,1.700000X1.700000*%
%TD*%
%TA.AperFunction,ComponentPad*%
%ADD11O,1.700000X1.700000*%
%TD*%
%TA.AperFunction,SMDPad,CuDef*%
%ADD12RoundRect,0.150000X0.625000X-0.150000X0.625000X0.150000X-0.625000X0.150000X-0.625000X-0.150000X0*%
%TD*%
%TA.AperFunction,SMDPad,CuDef*%
%ADD13RoundRect,0.250000X0.650000X-0.350000X0.650000X0.350000X-0.650000X0.350000X-0.650000X-0.350000X0*%
%TD*%
%TA.AperFunction,SMDPad,CuDef*%
%ADD14RoundRect,0.150000X-0.150000X-0.625000X0.150000X-0.625000X0.150000X0.625000X-0.150000X0.625000X0*%
%TD*%
%TA.AperFunction,SMDPad,CuDef*%
%ADD15RoundRect,0.250000X-0.350000X-0.650000X0.350000X-0.650000X0.350000X0.650000X-0.350000X0.650000X0*%
%TD*%
%TA.AperFunction,SMDPad,CuDef*%
%ADD16RoundRect,0.150000X0.150000X0.625000X-0.150000X0.625000X-0.150000X-0.625000X0.150000X-0.625000X0*%
%TD*%
%TA.AperFunction,SMDPad,CuDef*%
%ADD17RoundRect,0.250000X0.350000X0.650000X-0.350000X0.650000X-0.350000X-0.650000X0.350000X-0.650000X0*%
%TD*%
%TA.AperFunction,ViaPad*%
%ADD18C,0.800000*%
%TD*%
%TA.AperFunction,Conductor*%
%ADD19C,0.406400*%
%TD*%
G04 APERTURE END LIST*
D10*
%TO.P,J1,1,Pin_1*%
%TO.N,/SCL*%
X157479999Y-88894999D03*
D11*
%TO.P,J1,2,Pin_2*%
%TO.N,/SDA*%
X157479999Y-86354999D03*
%TO.P,J1,3,Pin_3*%
%TO.N,GND*%
X157479999Y-83814999D03*
%TO.P,J1,4,Pin_4*%
%TO.N,/OFF*%
X157479999Y-81274999D03*
%TO.P,J1,5,Pin_5*%
%TO.N,VCC*%
X157479999Y-78734999D03*
%TD*%
D12*
%TO.P,J4,1,Pin_1*%
%TO.N,GND*%
X161830000Y-85320000D03*
%TO.P,J4,2,Pin_2*%
%TO.N,VCC*%
X161830000Y-84320000D03*
%TO.P,J4,3,Pin_3*%
%TO.N,/SDA*%
X161830000Y-83320000D03*
%TO.P,J4,4,Pin_4*%
%TO.N,/SCL*%
X161830000Y-82320000D03*
D13*
%TO.P,J4,MP*%
%TO.N,N/C*%
X165705000Y-81020000D03*
X165705000Y-86620000D03*
%TD*%
D14*
%TO.P,J3,1,Pin_1*%
%TO.N,GND*%
X148360000Y-94520000D03*
%TO.P,J3,2,Pin_2*%
%TO.N,VCC*%
X149360000Y-94520000D03*
%TO.P,J3,3,Pin_3*%
%TO.N,/SDA*%
X150360000Y-94520000D03*
%TO.P,J3,4,Pin_4*%
%TO.N,/SCL*%
X151360000Y-94520000D03*
D15*
%TO.P,J3,MP*%
%TO.N,N/C*%
X152660000Y-98395000D03*
X147060000Y-98395000D03*
%TD*%
D16*
%TO.P,J2,1,Pin_1*%
%TO.N,GND*%
X151360000Y-73120000D03*
%TO.P,J2,2,Pin_2*%
%TO.N,VCC*%
X150360000Y-73120000D03*
%TO.P,J2,3,Pin_3*%
%TO.N,/SDA*%
X149360000Y-73120000D03*
%TO.P,J2,4,Pin_4*%
%TO.N,/SCL*%
X148360000Y-73120000D03*
D17*
%TO.P,J2,MP*%
%TO.N,N/C*%
X147060000Y-69245000D03*
X152660000Y-69245000D03*
%TD*%
D18*
%TO.N,/SDA*%
X154432000Y-90424000D03*
%TO.N,GND*%
X147066000Y-94488000D03*
X152908000Y-72898000D03*
%TO.N,/SCL*%
X159766000Y-82804000D03*
%TO.N,GND*%
X161798000Y-86868000D03*
%TD*%
D19*
%TO.N,/SDA*%
X154432000Y-91186000D02*
X154432000Y-90424000D01*
X150876000Y-92964000D02*
X150368000Y-93472000D01*
X154432000Y-91186000D02*
X152654000Y-92964000D01*
X152654000Y-92964000D02*
X150876000Y-92964000D01*
X150368000Y-93472000D02*
X150368000Y-93954657D01*
X150368000Y-93954657D02*
X150360000Y-93962657D01*
X150360000Y-93962657D02*
X150360000Y-94520000D01*
%TO.N,GND*%
X147098000Y-94520000D02*
X147066000Y-94488000D01*
X148360000Y-94520000D02*
X147098000Y-94520000D01*
X152686000Y-73120000D02*
X152908000Y-72898000D01*
X151360000Y-73120000D02*
X152686000Y-73120000D01*
%TO.N,/SCL*%
X160250000Y-82320000D02*
X159766000Y-82804000D01*
X161830000Y-82320000D02*
X160250000Y-82320000D01*
%TO.N,/SDA*%
X157480000Y-86355000D02*
X160515000Y-83320000D01*
X160515000Y-83320000D02*
X161830000Y-83320000D01*
%TO.N,GND*%
X161830000Y-86836000D02*
X161798000Y-86868000D01*
X161830000Y-85320000D02*
X161830000Y-86836000D01*
%TO.N,/SCL*%
X153384000Y-94520000D02*
X157480000Y-90424000D01*
X151360000Y-94520000D02*
X153384000Y-94520000D01*
X157480000Y-90424000D02*
X157480000Y-88895000D01*
X148360000Y-73120000D02*
X148360000Y-74446000D01*
X148360000Y-74446000D02*
X149098000Y-75184000D01*
X149098000Y-75184000D02*
X152654000Y-75184000D01*
X152654000Y-75184000D02*
X154432000Y-76962000D01*
X154432000Y-76962000D02*
X154432000Y-86106000D01*
X154432000Y-86106000D02*
X157221000Y-88895000D01*
X157221000Y-88895000D02*
X157480000Y-88895000D01*
%TO.N,/SDA*%
X149360000Y-73120000D02*
X149360000Y-74176000D01*
X155702000Y-77216000D02*
X155702000Y-84577000D01*
X149360000Y-74176000D02*
X149606000Y-74422000D01*
X149606000Y-74422000D02*
X152908000Y-74422000D01*
X152908000Y-74422000D02*
X155702000Y-77216000D01*
X155702000Y-84577000D02*
X157480000Y-86355000D01*
%TD*%
%TA.AperFunction,Conductor*%
%TO.N,VCC*%
G36*
X151775749Y-67840502D02*
G01*
X151822242Y-67894158D01*
X151832346Y-67964432D01*
X151802852Y-68029012D01*
X151796723Y-68035595D01*
X151710970Y-68121348D01*
X151707117Y-68127595D01*
X151707116Y-68127596D01*
X151672431Y-68183829D01*
X151617885Y-68272262D01*
X151615578Y-68279225D01*
X151568232Y-68422109D01*
X151562113Y-68440574D01*
X151561415Y-68447408D01*
X151561414Y-68447412D01*
X151551825Y-68541270D01*
X151551500Y-68544455D01*
X151551501Y-69945544D01*
X151562113Y-70049426D01*
X151617885Y-70217738D01*
X151633210Y-70242584D01*
X151695404Y-70343415D01*
X151710970Y-70368652D01*
X151836348Y-70494030D01*
X151987262Y-70587115D01*
X152050807Y-70608171D01*
X152149048Y-70640725D01*
X152149052Y-70640726D01*
X152155574Y-70642887D01*
X152162408Y-70643585D01*
X152162412Y-70643586D01*
X152256271Y-70653175D01*
X152256277Y-70653175D01*
X152259455Y-70653500D01*
X152659937Y-70653500D01*
X153060544Y-70653499D01*
X153063721Y-70653174D01*
X153063730Y-70653174D01*
X153112467Y-70648195D01*
X153164426Y-70642887D01*
X153332738Y-70587115D01*
X153483652Y-70494030D01*
X153609030Y-70368652D01*
X153624597Y-70343415D01*
X153686790Y-70242584D01*
X153702115Y-70217738D01*
X153757887Y-70049426D01*
X153758611Y-70042348D01*
X153768175Y-69948729D01*
X153768175Y-69948723D01*
X153768500Y-69945545D01*
X153768499Y-68544456D01*
X153767906Y-68538644D01*
X153760353Y-68464716D01*
X153757887Y-68440574D01*
X153702115Y-68272262D01*
X153647569Y-68183829D01*
X153612884Y-68127596D01*
X153612883Y-68127595D01*
X153609030Y-68121348D01*
X153523277Y-68035595D01*
X153489251Y-67973283D01*
X153494316Y-67902468D01*
X153536863Y-67845632D01*
X153603383Y-67820821D01*
X153612372Y-67820500D01*
X159814109Y-67820500D01*
X159820703Y-67820673D01*
X159890711Y-67824342D01*
X159950898Y-67827496D01*
X160131186Y-67837621D01*
X160143828Y-67838974D01*
X160292411Y-67862507D01*
X160293766Y-67862730D01*
X160316135Y-67866530D01*
X160452609Y-67889719D01*
X160464114Y-67892232D01*
X160613014Y-67932129D01*
X160615285Y-67932761D01*
X160766473Y-67976318D01*
X160776745Y-67979762D01*
X160922066Y-68035545D01*
X160925130Y-68036767D01*
X161069064Y-68096386D01*
X161078049Y-68100528D01*
X161217489Y-68171577D01*
X161221234Y-68173566D01*
X161356854Y-68248520D01*
X161364514Y-68253116D01*
X161496217Y-68338645D01*
X161500398Y-68341484D01*
X161614028Y-68422109D01*
X161626454Y-68430926D01*
X161632835Y-68435765D01*
X161754988Y-68534682D01*
X161759645Y-68538644D01*
X161769734Y-68547660D01*
X161874744Y-68641503D01*
X161879879Y-68646359D01*
X161991044Y-68757524D01*
X161995900Y-68762659D01*
X162098751Y-68877749D01*
X162102720Y-68882415D01*
X162201635Y-69004565D01*
X162206476Y-69010947D01*
X162295878Y-69136948D01*
X162298789Y-69141235D01*
X162384284Y-69272885D01*
X162388890Y-69280561D01*
X162463827Y-69416149D01*
X162465806Y-69419877D01*
X162527082Y-69540139D01*
X162536881Y-69559370D01*
X162541023Y-69568355D01*
X162600603Y-69712196D01*
X162601825Y-69715258D01*
X162628642Y-69785117D01*
X162657653Y-69860694D01*
X162661090Y-69870943D01*
X162704633Y-70022083D01*
X162705228Y-70024224D01*
X162730757Y-70119500D01*
X162745175Y-70173309D01*
X162747688Y-70184814D01*
X162761949Y-70268744D01*
X162774636Y-70343415D01*
X162774853Y-70344735D01*
X162777651Y-70362404D01*
X162798430Y-70493602D01*
X162799783Y-70506247D01*
X162809867Y-70685811D01*
X162809892Y-70686282D01*
X162816730Y-70816757D01*
X162816903Y-70823351D01*
X162816903Y-77739986D01*
X162816902Y-77740000D01*
X162816900Y-77740000D01*
X162816900Y-77827533D01*
X162847300Y-77999938D01*
X162849182Y-78005108D01*
X162849182Y-78005109D01*
X162877200Y-78082087D01*
X162907176Y-78164446D01*
X162994708Y-78316056D01*
X163107238Y-78450164D01*
X163241346Y-78562693D01*
X163392957Y-78650226D01*
X163557465Y-78710101D01*
X163562874Y-78711055D01*
X163562875Y-78711055D01*
X163623608Y-78721764D01*
X163729870Y-78740500D01*
X165811896Y-78740500D01*
X165822879Y-78740980D01*
X165862229Y-78744423D01*
X165863596Y-78744550D01*
X165988997Y-78756901D01*
X166009259Y-78760587D01*
X166044015Y-78769900D01*
X166073785Y-78777877D01*
X166077750Y-78779010D01*
X166168814Y-78806634D01*
X166185489Y-78813014D01*
X166251232Y-78843671D01*
X166257377Y-78846743D01*
X166336329Y-78888944D01*
X166349203Y-78896853D01*
X166410251Y-78939599D01*
X166417914Y-78945413D01*
X166485769Y-79001100D01*
X166494931Y-79009404D01*
X166547998Y-79062471D01*
X166556303Y-79071633D01*
X166611988Y-79139486D01*
X166617800Y-79147147D01*
X166660553Y-79208203D01*
X166668458Y-79221072D01*
X166706344Y-79291950D01*
X166710651Y-79300008D01*
X166713724Y-79306154D01*
X166744390Y-79371917D01*
X166750769Y-79388591D01*
X166778381Y-79479615D01*
X166779514Y-79483581D01*
X166796818Y-79548163D01*
X166800503Y-79568419D01*
X166801231Y-79575799D01*
X166812835Y-79693616D01*
X166812942Y-79694765D01*
X166816425Y-79734570D01*
X166816903Y-79745530D01*
X166816903Y-79849510D01*
X166796901Y-79917631D01*
X166743245Y-79964124D01*
X166672971Y-79974228D01*
X166651271Y-79969115D01*
X166515952Y-79924275D01*
X166515948Y-79924274D01*
X166509426Y-79922113D01*
X166502592Y-79921415D01*
X166502588Y-79921414D01*
X166408729Y-79911825D01*
X166408723Y-79911825D01*
X166405545Y-79911500D01*
X165705110Y-79911500D01*
X165004456Y-79911501D01*
X165001279Y-79911826D01*
X165001270Y-79911826D01*
X164955520Y-79916500D01*
X164900574Y-79922113D01*
X164732262Y-79977885D01*
X164581348Y-80070970D01*
X164455970Y-80196348D01*
X164362885Y-80347262D01*
X164307113Y-80515574D01*
X164296500Y-80619455D01*
X164296501Y-81420544D01*
X164307113Y-81524426D01*
X164362885Y-81692738D01*
X164397373Y-81748651D01*
X164450429Y-81834668D01*
X164455970Y-81843652D01*
X164581348Y-81969030D01*
X164732262Y-82062115D01*
X164758729Y-82070885D01*
X164894048Y-82115725D01*
X164894052Y-82115726D01*
X164900574Y-82117887D01*
X164907408Y-82118585D01*
X164907412Y-82118586D01*
X165001271Y-82128175D01*
X165001277Y-82128175D01*
X165004455Y-82128500D01*
X165704890Y-82128500D01*
X166405544Y-82128499D01*
X166408721Y-82128174D01*
X166408730Y-82128174D01*
X166464239Y-82122503D01*
X166509426Y-82117887D01*
X166651271Y-82070885D01*
X166722225Y-82068445D01*
X166783235Y-82104754D01*
X166814931Y-82168283D01*
X166816903Y-82190490D01*
X166816903Y-85449510D01*
X166796901Y-85517631D01*
X166743245Y-85564124D01*
X166672971Y-85574228D01*
X166651271Y-85569115D01*
X166515952Y-85524275D01*
X166515948Y-85524274D01*
X166509426Y-85522113D01*
X166502592Y-85521415D01*
X166502588Y-85521414D01*
X166408729Y-85511825D01*
X166408723Y-85511825D01*
X166405545Y-85511500D01*
X165705110Y-85511500D01*
X165004456Y-85511501D01*
X165001279Y-85511826D01*
X165001270Y-85511826D01*
X164952533Y-85516805D01*
X164900574Y-85522113D01*
X164732262Y-85577885D01*
X164581348Y-85670970D01*
X164455970Y-85796348D01*
X164362885Y-85947262D01*
X164360578Y-85954225D01*
X164310900Y-86104146D01*
X164307113Y-86115574D01*
X164306415Y-86122408D01*
X164306414Y-86122412D01*
X164297144Y-86213147D01*
X164296500Y-86219455D01*
X164296501Y-87020544D01*
X164307113Y-87124426D01*
X164362885Y-87292738D01*
X164455970Y-87443652D01*
X164581348Y-87569030D01*
X164587595Y-87572883D01*
X164587596Y-87572884D01*
X164630765Y-87599511D01*
X164732262Y-87662115D01*
X164795807Y-87683171D01*
X164894048Y-87715725D01*
X164894052Y-87715726D01*
X164900574Y-87717887D01*
X164907408Y-87718585D01*
X164907412Y-87718586D01*
X165001271Y-87728175D01*
X165001277Y-87728175D01*
X165004455Y-87728500D01*
X165704890Y-87728500D01*
X166405544Y-87728499D01*
X166408721Y-87728174D01*
X166408730Y-87728174D01*
X166457467Y-87723195D01*
X166509426Y-87717887D01*
X166651271Y-87670885D01*
X166722225Y-87668445D01*
X166783235Y-87704754D01*
X166814931Y-87768283D01*
X166816903Y-87790490D01*
X166816903Y-87894504D01*
X166816425Y-87905466D01*
X166812971Y-87944940D01*
X166812871Y-87946010D01*
X166800502Y-88071599D01*
X166796818Y-88091850D01*
X166779541Y-88156330D01*
X166778409Y-88160292D01*
X166750765Y-88251426D01*
X166744388Y-88268095D01*
X166713744Y-88333809D01*
X166710679Y-88339939D01*
X166668445Y-88418951D01*
X166660542Y-88431817D01*
X166617825Y-88492824D01*
X166612021Y-88500474D01*
X166556280Y-88568395D01*
X166547975Y-88577557D01*
X166494960Y-88630572D01*
X166485798Y-88638877D01*
X166417878Y-88694617D01*
X166410216Y-88700430D01*
X166349230Y-88743133D01*
X166336356Y-88751042D01*
X166310073Y-88765091D01*
X166257310Y-88793293D01*
X166251171Y-88796362D01*
X166185514Y-88826978D01*
X166168841Y-88833357D01*
X166077626Y-88861027D01*
X166073705Y-88862148D01*
X166009275Y-88879412D01*
X165989018Y-88883097D01*
X165952946Y-88886650D01*
X165863258Y-88895484D01*
X165862001Y-88895601D01*
X165822912Y-88899021D01*
X165811931Y-88899500D01*
X163817304Y-88899500D01*
X163817300Y-88899502D01*
X163817288Y-88899503D01*
X163817154Y-88899503D01*
X163735375Y-88899502D01*
X163729871Y-88899502D01*
X163632119Y-88916739D01*
X163562880Y-88928947D01*
X163562876Y-88928948D01*
X163557466Y-88929902D01*
X163392958Y-88989777D01*
X163388199Y-88992525D01*
X163388196Y-88992526D01*
X163315653Y-89034409D01*
X163241348Y-89077309D01*
X163107240Y-89189838D01*
X162994711Y-89323945D01*
X162907178Y-89475556D01*
X162905297Y-89480724D01*
X162849916Y-89632882D01*
X162847302Y-89640063D01*
X162816903Y-89812468D01*
X162816903Y-96816706D01*
X162816730Y-96823300D01*
X162809937Y-96952919D01*
X162809912Y-96953390D01*
X162808034Y-96986826D01*
X162804109Y-97056736D01*
X162799782Y-97133781D01*
X162798429Y-97146427D01*
X162774904Y-97294958D01*
X162774675Y-97296352D01*
X162769619Y-97326111D01*
X162747681Y-97455228D01*
X162745174Y-97466706D01*
X162705272Y-97615621D01*
X162704659Y-97617825D01*
X162661081Y-97769085D01*
X162657637Y-97779357D01*
X162601877Y-97924617D01*
X162600655Y-97927681D01*
X162541010Y-98071676D01*
X162536868Y-98080661D01*
X162465849Y-98220043D01*
X162463860Y-98223788D01*
X162388870Y-98359474D01*
X162384265Y-98367150D01*
X162298834Y-98498703D01*
X162295921Y-98502992D01*
X162206440Y-98629103D01*
X162201600Y-98635484D01*
X162102770Y-98757529D01*
X162098801Y-98762195D01*
X161995866Y-98877379D01*
X161991010Y-98882514D01*
X161879916Y-98993608D01*
X161874780Y-98998464D01*
X161759604Y-99101391D01*
X161754940Y-99105360D01*
X161632891Y-99204194D01*
X161626509Y-99209034D01*
X161500367Y-99298537D01*
X161496091Y-99301441D01*
X161436891Y-99339886D01*
X161364565Y-99386855D01*
X161356889Y-99391460D01*
X161221160Y-99466474D01*
X161217415Y-99468463D01*
X161078076Y-99539460D01*
X161069091Y-99543602D01*
X160925051Y-99603265D01*
X160921988Y-99604487D01*
X160868408Y-99625055D01*
X160776767Y-99660233D01*
X160766511Y-99663672D01*
X160615111Y-99707290D01*
X160612875Y-99707911D01*
X160583269Y-99715844D01*
X160464144Y-99747763D01*
X160452639Y-99750276D01*
X160293526Y-99777311D01*
X160292131Y-99777540D01*
X160143859Y-99801024D01*
X160131212Y-99802377D01*
X159950090Y-99812548D01*
X159949621Y-99812573D01*
X159820761Y-99819327D01*
X159814166Y-99819500D01*
X153612372Y-99819500D01*
X153544251Y-99799498D01*
X153497758Y-99745842D01*
X153487654Y-99675568D01*
X153517148Y-99610988D01*
X153523277Y-99604405D01*
X153609030Y-99518652D01*
X153702115Y-99367738D01*
X153724080Y-99301450D01*
X153755725Y-99205952D01*
X153755726Y-99205948D01*
X153757887Y-99199426D01*
X153760359Y-99175236D01*
X153768175Y-99098729D01*
X153768175Y-99098723D01*
X153768500Y-99095545D01*
X153768499Y-97694456D01*
X153757887Y-97590574D01*
X153702115Y-97422262D01*
X153609030Y-97271348D01*
X153483652Y-97145970D01*
X153332738Y-97052885D01*
X153269193Y-97031829D01*
X153170952Y-96999275D01*
X153170948Y-96999274D01*
X153164426Y-96997113D01*
X153157592Y-96996415D01*
X153157588Y-96996414D01*
X153063729Y-96986825D01*
X153063723Y-96986825D01*
X153060545Y-96986500D01*
X152660063Y-96986500D01*
X152259456Y-96986501D01*
X152256279Y-96986826D01*
X152256270Y-96986826D01*
X152207533Y-96991805D01*
X152155574Y-96997113D01*
X151987262Y-97052885D01*
X151836348Y-97145970D01*
X151710970Y-97271348D01*
X151617885Y-97422262D01*
X151562113Y-97590574D01*
X151561415Y-97597408D01*
X151561414Y-97597412D01*
X151559561Y-97615554D01*
X151551500Y-97694455D01*
X151551501Y-99095544D01*
X151551826Y-99098721D01*
X151551826Y-99098730D01*
X151556805Y-99147467D01*
X151562113Y-99199426D01*
X151617885Y-99367738D01*
X151710970Y-99518652D01*
X151796723Y-99604405D01*
X151830749Y-99666717D01*
X151825684Y-99737532D01*
X151783137Y-99794368D01*
X151716617Y-99819179D01*
X151707628Y-99819500D01*
X148012372Y-99819500D01*
X147944251Y-99799498D01*
X147897758Y-99745842D01*
X147887654Y-99675568D01*
X147917148Y-99610988D01*
X147923277Y-99604405D01*
X148009030Y-99518652D01*
X148102115Y-99367738D01*
X148124080Y-99301450D01*
X148155725Y-99205952D01*
X148155726Y-99205948D01*
X148157887Y-99199426D01*
X148160359Y-99175236D01*
X148168175Y-99098729D01*
X148168175Y-99098723D01*
X148168500Y-99095545D01*
X148168499Y-97694456D01*
X148157887Y-97590574D01*
X148102115Y-97422262D01*
X148009030Y-97271348D01*
X147883652Y-97145970D01*
X147732738Y-97052885D01*
X147669193Y-97031829D01*
X147570952Y-96999275D01*
X147570948Y-96999274D01*
X147564426Y-96997113D01*
X147557592Y-96996415D01*
X147557588Y-96996414D01*
X147463729Y-96986825D01*
X147463723Y-96986825D01*
X147460545Y-96986500D01*
X147060063Y-96986500D01*
X146659456Y-96986501D01*
X146656279Y-96986826D01*
X146656270Y-96986826D01*
X146607533Y-96991805D01*
X146555574Y-96997113D01*
X146387262Y-97052885D01*
X146236348Y-97145970D01*
X146110970Y-97271348D01*
X146107117Y-97277595D01*
X146107116Y-97277596D01*
X146051145Y-97368339D01*
X145998359Y-97415817D01*
X145928284Y-97427220D01*
X145863168Y-97398927D01*
X145823686Y-97339922D01*
X145817904Y-97302192D01*
X145817904Y-95820000D01*
X157112135Y-95820000D01*
X157131181Y-96074157D01*
X157187895Y-96322637D01*
X157281010Y-96559888D01*
X157408444Y-96780612D01*
X157411376Y-96784289D01*
X157411379Y-96784293D01*
X157564418Y-96976197D01*
X157567353Y-96979877D01*
X157754186Y-97153232D01*
X157758085Y-97155890D01*
X157957443Y-97291810D01*
X157964769Y-97296805D01*
X158194399Y-97407389D01*
X158258690Y-97427220D01*
X158433438Y-97481123D01*
X158433441Y-97481124D01*
X158437945Y-97482513D01*
X158535245Y-97497179D01*
X158685308Y-97519798D01*
X158685313Y-97519798D01*
X158689968Y-97520500D01*
X158944838Y-97520500D01*
X158949493Y-97519798D01*
X158949498Y-97519798D01*
X159099561Y-97497179D01*
X159196861Y-97482513D01*
X159201365Y-97481124D01*
X159201368Y-97481123D01*
X159376116Y-97427220D01*
X159440407Y-97407389D01*
X159670037Y-97296805D01*
X159677364Y-97291810D01*
X159876721Y-97155890D01*
X159880620Y-97153232D01*
X160067453Y-96979877D01*
X160070388Y-96976197D01*
X160223427Y-96784293D01*
X160223430Y-96784289D01*
X160226362Y-96780612D01*
X160353796Y-96559888D01*
X160446911Y-96322637D01*
X160503625Y-96074157D01*
X160522671Y-95820000D01*
X160517434Y-95750109D01*
X160503978Y-95570548D01*
X160503977Y-95570543D01*
X160503625Y-95565843D01*
X160500422Y-95551807D01*
X160447961Y-95321963D01*
X160447961Y-95321962D01*
X160446911Y-95317363D01*
X160407166Y-95216094D01*
X160374762Y-95133533D01*
X160353796Y-95080112D01*
X160226362Y-94859388D01*
X160223430Y-94855711D01*
X160223427Y-94855707D01*
X160070388Y-94663803D01*
X160070386Y-94663801D01*
X160067453Y-94660123D01*
X159880620Y-94486768D01*
X159766791Y-94409161D01*
X159673933Y-94345851D01*
X159673931Y-94345850D01*
X159670037Y-94343195D01*
X159440407Y-94232611D01*
X159318634Y-94195049D01*
X159201368Y-94158877D01*
X159201365Y-94158876D01*
X159196861Y-94157487D01*
X159099561Y-94142821D01*
X158949498Y-94120202D01*
X158949493Y-94120202D01*
X158944838Y-94119500D01*
X158689968Y-94119500D01*
X158685313Y-94120202D01*
X158685308Y-94120202D01*
X158535245Y-94142821D01*
X158437945Y-94157487D01*
X158433441Y-94158876D01*
X158433438Y-94158877D01*
X158316172Y-94195049D01*
X158194399Y-94232611D01*
X157964769Y-94343195D01*
X157960875Y-94345850D01*
X157960873Y-94345851D01*
X157868015Y-94409161D01*
X157754186Y-94486768D01*
X157567353Y-94660123D01*
X157564420Y-94663801D01*
X157564418Y-94663803D01*
X157411379Y-94855707D01*
X157411376Y-94855711D01*
X157408444Y-94859388D01*
X157281010Y-95080112D01*
X157260044Y-95133533D01*
X157227641Y-95216094D01*
X157187895Y-95317363D01*
X157186845Y-95321962D01*
X157186845Y-95321963D01*
X157134385Y-95551807D01*
X157131181Y-95565843D01*
X157130829Y-95570543D01*
X157130828Y-95570548D01*
X157117372Y-95750109D01*
X157112135Y-95820000D01*
X145817904Y-95820000D01*
X145817904Y-94488000D01*
X146152496Y-94488000D01*
X146153186Y-94494565D01*
X146170587Y-94660123D01*
X146172458Y-94677928D01*
X146231473Y-94859556D01*
X146326960Y-95024944D01*
X146331378Y-95029851D01*
X146331379Y-95029852D01*
X146439994Y-95150481D01*
X146454747Y-95166866D01*
X146543983Y-95231700D01*
X146576064Y-95255008D01*
X146609248Y-95279118D01*
X146615276Y-95281802D01*
X146615278Y-95281803D01*
X146751782Y-95342578D01*
X146783712Y-95356794D01*
X146877113Y-95376647D01*
X146964056Y-95395128D01*
X146964061Y-95395128D01*
X146970513Y-95396500D01*
X147161487Y-95396500D01*
X147167939Y-95395128D01*
X147167944Y-95395128D01*
X147254887Y-95376647D01*
X147348288Y-95356794D01*
X147354315Y-95354111D01*
X147354323Y-95354108D01*
X147426652Y-95321905D01*
X147497019Y-95312471D01*
X147561316Y-95342578D01*
X147594110Y-95394311D01*
X147595495Y-95393712D01*
X147598642Y-95400984D01*
X147600855Y-95408601D01*
X147632772Y-95462570D01*
X147681509Y-95544980D01*
X147681511Y-95544983D01*
X147685547Y-95551807D01*
X147803193Y-95669453D01*
X147810017Y-95673489D01*
X147810020Y-95673491D01*
X147894125Y-95723230D01*
X147946399Y-95754145D01*
X147954010Y-95756356D01*
X147954012Y-95756357D01*
X148006231Y-95771528D01*
X148106169Y-95800562D01*
X148112574Y-95801066D01*
X148112579Y-95801067D01*
X148141042Y-95803307D01*
X148141050Y-95803307D01*
X148143498Y-95803500D01*
X148576502Y-95803500D01*
X148578950Y-95803307D01*
X148578958Y-95803307D01*
X148607421Y-95801067D01*
X148607426Y-95801066D01*
X148613831Y-95800562D01*
X148713769Y-95771528D01*
X148765988Y-95756357D01*
X148765990Y-95756356D01*
X148773601Y-95754145D01*
X148796351Y-95740690D01*
X148865165Y-95723230D01*
X148924630Y-95740689D01*
X148939779Y-95749648D01*
X148954210Y-95755893D01*
X149088605Y-95794939D01*
X149102706Y-95794899D01*
X149106000Y-95787630D01*
X149106000Y-95462570D01*
X149116115Y-95413725D01*
X149119145Y-95408601D01*
X149121355Y-95400993D01*
X149121357Y-95400989D01*
X149163767Y-95255008D01*
X149165562Y-95248831D01*
X149166806Y-95233034D01*
X149168307Y-95213958D01*
X149168307Y-95213950D01*
X149168500Y-95211502D01*
X149168500Y-93828498D01*
X149168307Y-93826042D01*
X149166067Y-93797579D01*
X149166066Y-93797574D01*
X149165562Y-93791169D01*
X149139297Y-93700763D01*
X149121357Y-93639011D01*
X149121355Y-93639007D01*
X149119145Y-93631399D01*
X149116115Y-93626275D01*
X149106000Y-93577430D01*
X149106000Y-93258122D01*
X149102027Y-93244591D01*
X149094129Y-93243456D01*
X148954210Y-93284107D01*
X148939779Y-93290352D01*
X148924630Y-93299311D01*
X148855814Y-93316770D01*
X148796352Y-93299310D01*
X148773601Y-93285855D01*
X148765990Y-93283644D01*
X148765988Y-93283643D01*
X148713769Y-93268472D01*
X148613831Y-93239438D01*
X148607426Y-93238934D01*
X148607421Y-93238933D01*
X148578958Y-93236693D01*
X148578950Y-93236693D01*
X148576502Y-93236500D01*
X148143498Y-93236500D01*
X148141050Y-93236693D01*
X148141042Y-93236693D01*
X148112579Y-93238933D01*
X148112574Y-93238934D01*
X148106169Y-93239438D01*
X148006231Y-93268472D01*
X147954012Y-93283643D01*
X147954010Y-93283644D01*
X147946399Y-93285855D01*
X147939572Y-93289892D01*
X147939573Y-93289892D01*
X147810020Y-93366509D01*
X147810017Y-93366511D01*
X147803193Y-93370547D01*
X147685547Y-93488193D01*
X147620130Y-93598807D01*
X147611067Y-93614132D01*
X147559174Y-93662584D01*
X147489324Y-93675289D01*
X147451367Y-93665100D01*
X147348288Y-93619206D01*
X147252319Y-93598807D01*
X147167944Y-93580872D01*
X147167939Y-93580872D01*
X147161487Y-93579500D01*
X146970513Y-93579500D01*
X146964061Y-93580872D01*
X146964056Y-93580872D01*
X146879681Y-93598807D01*
X146783712Y-93619206D01*
X146777682Y-93621891D01*
X146777681Y-93621891D01*
X146615278Y-93694197D01*
X146615276Y-93694198D01*
X146609248Y-93696882D01*
X146454747Y-93809134D01*
X146450326Y-93814044D01*
X146450325Y-93814045D01*
X146435088Y-93830968D01*
X146326960Y-93951056D01*
X146231473Y-94116444D01*
X146172458Y-94298072D01*
X146152496Y-94488000D01*
X145817904Y-94488000D01*
X145817904Y-92816554D01*
X145819989Y-92793728D01*
X145837254Y-92700002D01*
X145847469Y-92668530D01*
X145925060Y-92506053D01*
X145933641Y-92490882D01*
X145975612Y-92427372D01*
X145985465Y-92412463D01*
X145992630Y-92402679D01*
X146037404Y-92347341D01*
X146115417Y-92250922D01*
X146124646Y-92240711D01*
X146265802Y-92100776D01*
X146276139Y-92091597D01*
X146428614Y-91970491D01*
X146436077Y-91964999D01*
X146459941Y-91948754D01*
X146470294Y-91942414D01*
X146635914Y-91851672D01*
X146649974Y-91845061D01*
X146663023Y-91839882D01*
X146683541Y-91833699D01*
X146804616Y-91808204D01*
X146830579Y-91805500D01*
X151897349Y-91805500D01*
X151897396Y-91805510D01*
X151897450Y-91805500D01*
X151897502Y-91805500D01*
X151897544Y-91805483D01*
X151908512Y-91803463D01*
X151908519Y-91803462D01*
X152006706Y-91785375D01*
X152019029Y-91783105D01*
X152019096Y-91783101D01*
X152019125Y-91783087D01*
X152019158Y-91783081D01*
X152019215Y-91783044D01*
X152030464Y-91777672D01*
X152030467Y-91777671D01*
X152183779Y-91704454D01*
X152204635Y-91694494D01*
X152204672Y-91694487D01*
X152204729Y-91694449D01*
X152204784Y-91694423D01*
X152204806Y-91694398D01*
X152210570Y-91690589D01*
X152210577Y-91690585D01*
X152295509Y-91634459D01*
X152295808Y-91634912D01*
X152295866Y-91634870D01*
X152295533Y-91634452D01*
X152295592Y-91634405D01*
X152295653Y-91634364D01*
X152295952Y-91634808D01*
X152296009Y-91634767D01*
X152295667Y-91634344D01*
X152347518Y-91592390D01*
X152457444Y-91503447D01*
X152457468Y-91503437D01*
X152457515Y-91503389D01*
X152457575Y-91503341D01*
X152457590Y-91503314D01*
X152607182Y-91352418D01*
X152607321Y-91352556D01*
X152607351Y-91352522D01*
X152607205Y-91352405D01*
X152607246Y-91352354D01*
X152607300Y-91352299D01*
X152607433Y-91352430D01*
X152607466Y-91352393D01*
X152607312Y-91352271D01*
X152612451Y-91345801D01*
X152612452Y-91345800D01*
X152735541Y-91190827D01*
X152736264Y-91191401D01*
X152736314Y-91191333D01*
X152735557Y-91190817D01*
X152735602Y-91190751D01*
X152735652Y-91190688D01*
X152736370Y-91191258D01*
X152736421Y-91191189D01*
X152735658Y-91190669D01*
X152757833Y-91158095D01*
X152757866Y-91158046D01*
X152757884Y-91158032D01*
X152757919Y-91157968D01*
X152757962Y-91157905D01*
X152758258Y-91158107D01*
X152758289Y-91158056D01*
X152757967Y-91157880D01*
X152758781Y-91156395D01*
X152758781Y-91156393D01*
X152855331Y-90980173D01*
X152855351Y-90980152D01*
X152855374Y-90980093D01*
X152855409Y-90980030D01*
X152855413Y-90979997D01*
X152867413Y-90949765D01*
X152867439Y-90949727D01*
X152867451Y-90949669D01*
X152867471Y-90949619D01*
X152867470Y-90949578D01*
X152870738Y-90934063D01*
X152895328Y-90817284D01*
X152897884Y-90805146D01*
X152897903Y-90805099D01*
X152897903Y-90805054D01*
X152897913Y-90805007D01*
X152897903Y-90804953D01*
X152897903Y-76835054D01*
X152897913Y-76835007D01*
X152897903Y-76834953D01*
X152897903Y-76834901D01*
X152897886Y-76834859D01*
X152880827Y-76742253D01*
X152888157Y-76671638D01*
X152932502Y-76616194D01*
X152999782Y-76593526D01*
X153068638Y-76610831D01*
X153093837Y-76630333D01*
X153683395Y-77219891D01*
X153717421Y-77282203D01*
X153720300Y-77308986D01*
X153720300Y-86080685D01*
X153720070Y-86088294D01*
X153717509Y-86130632D01*
X153716380Y-86149287D01*
X153726613Y-86205122D01*
X153727398Y-86209407D01*
X153728541Y-86216919D01*
X153735906Y-86277572D01*
X153738607Y-86284693D01*
X153738607Y-86284694D01*
X153739556Y-86287195D01*
X153745680Y-86309163D01*
X153747535Y-86319287D01*
X153765944Y-86360189D01*
X153772611Y-86375003D01*
X153775524Y-86382035D01*
X153797193Y-86439173D01*
X153801518Y-86445439D01*
X153801519Y-86445441D01*
X153803042Y-86447647D01*
X153814242Y-86467505D01*
X153818467Y-86476893D01*
X153823164Y-86482888D01*
X153823165Y-86482890D01*
X153856149Y-86524990D01*
X153860650Y-86531107D01*
X153895372Y-86581411D01*
X153901073Y-86586462D01*
X153901077Y-86586466D01*
X153941118Y-86621938D01*
X153946660Y-86627156D01*
X156084595Y-88765091D01*
X156118621Y-88827403D01*
X156121500Y-88854186D01*
X156121500Y-89793638D01*
X156121860Y-89796985D01*
X156121860Y-89796988D01*
X156123524Y-89812468D01*
X156128011Y-89854201D01*
X156179111Y-89991204D01*
X156184510Y-89998416D01*
X156184511Y-89998418D01*
X156224955Y-90052444D01*
X156266739Y-90108261D01*
X156383796Y-90195889D01*
X156392234Y-90199036D01*
X156392241Y-90199040D01*
X156431580Y-90213713D01*
X156488415Y-90256261D01*
X156513225Y-90322781D01*
X156498133Y-90392155D01*
X156476641Y-90420863D01*
X155291528Y-91605976D01*
X155229216Y-91640002D01*
X155158401Y-91634937D01*
X155101565Y-91592390D01*
X155076754Y-91525870D01*
X155084619Y-91472205D01*
X155088484Y-91462014D01*
X155091389Y-91455003D01*
X155113336Y-91406240D01*
X155113337Y-91406238D01*
X155116465Y-91399287D01*
X155118320Y-91389163D01*
X155124444Y-91367195D01*
X155125393Y-91364694D01*
X155125393Y-91364693D01*
X155128094Y-91357572D01*
X155129524Y-91345801D01*
X155135457Y-91296932D01*
X155136602Y-91289407D01*
X155146246Y-91236782D01*
X155147620Y-91229287D01*
X155145294Y-91190827D01*
X155143930Y-91168288D01*
X155143700Y-91160680D01*
X155143700Y-91038340D01*
X155167609Y-90964755D01*
X155171040Y-90960944D01*
X155174340Y-90955228D01*
X155174343Y-90955224D01*
X155263223Y-90801279D01*
X155263224Y-90801278D01*
X155266527Y-90795556D01*
X155325542Y-90613928D01*
X155328267Y-90588006D01*
X155344814Y-90430565D01*
X155345504Y-90424000D01*
X155325542Y-90234072D01*
X155266527Y-90052444D01*
X155171040Y-89887056D01*
X155108839Y-89817974D01*
X155047675Y-89750045D01*
X155047674Y-89750044D01*
X155043253Y-89745134D01*
X154888752Y-89632882D01*
X154882724Y-89630198D01*
X154882722Y-89630197D01*
X154720319Y-89557891D01*
X154720318Y-89557891D01*
X154714288Y-89555206D01*
X154620887Y-89535353D01*
X154533944Y-89516872D01*
X154533939Y-89516872D01*
X154527487Y-89515500D01*
X154336513Y-89515500D01*
X154330061Y-89516872D01*
X154330056Y-89516872D01*
X154243113Y-89535353D01*
X154149712Y-89555206D01*
X154143682Y-89557891D01*
X154143681Y-89557891D01*
X153981278Y-89630197D01*
X153981276Y-89630198D01*
X153975248Y-89632882D01*
X153820747Y-89745134D01*
X153816326Y-89750044D01*
X153816325Y-89750045D01*
X153755162Y-89817974D01*
X153692960Y-89887056D01*
X153597473Y-90052444D01*
X153538458Y-90234072D01*
X153518496Y-90424000D01*
X153519186Y-90430565D01*
X153535734Y-90588006D01*
X153538458Y-90613928D01*
X153597473Y-90795556D01*
X153626589Y-90845985D01*
X153629099Y-90850333D01*
X153645837Y-90919328D01*
X153622617Y-90986420D01*
X153609075Y-91002429D01*
X152396109Y-92215395D01*
X152333797Y-92249421D01*
X152307014Y-92252300D01*
X150901303Y-92252300D01*
X150893695Y-92252070D01*
X150840321Y-92248841D01*
X150840319Y-92248841D01*
X150832713Y-92248381D01*
X150825216Y-92249755D01*
X150825214Y-92249755D01*
X150772603Y-92259396D01*
X150765081Y-92260541D01*
X150711994Y-92266987D01*
X150711992Y-92266988D01*
X150704428Y-92267906D01*
X150694801Y-92271557D01*
X150672838Y-92277679D01*
X150662712Y-92279535D01*
X150655759Y-92282664D01*
X150655760Y-92282664D01*
X150606998Y-92304610D01*
X150599966Y-92307523D01*
X150542827Y-92329193D01*
X150536561Y-92333518D01*
X150536559Y-92333519D01*
X150534353Y-92335042D01*
X150514492Y-92346244D01*
X150512054Y-92347341D01*
X150512052Y-92347342D01*
X150505107Y-92350468D01*
X150499110Y-92355166D01*
X150499109Y-92355167D01*
X150457024Y-92388139D01*
X150450892Y-92392651D01*
X150430256Y-92406895D01*
X150400589Y-92427372D01*
X150395535Y-92433077D01*
X150360063Y-92473117D01*
X150354845Y-92478660D01*
X149882652Y-92950852D01*
X149877110Y-92956069D01*
X149831372Y-92996589D01*
X149796650Y-93046893D01*
X149792156Y-93053001D01*
X149754467Y-93101107D01*
X149750244Y-93110491D01*
X149739042Y-93130353D01*
X149733193Y-93138827D01*
X149730492Y-93145950D01*
X149723717Y-93163813D01*
X149680859Y-93220415D01*
X149618113Y-93243425D01*
X149618030Y-93243479D01*
X149614000Y-93252370D01*
X149614000Y-93577430D01*
X149603885Y-93626275D01*
X149600855Y-93631399D01*
X149598645Y-93639007D01*
X149598643Y-93639011D01*
X149580703Y-93700763D01*
X149554438Y-93791169D01*
X149553934Y-93797574D01*
X149553933Y-93797579D01*
X149551693Y-93826042D01*
X149551500Y-93828498D01*
X149551500Y-95211502D01*
X149551693Y-95213950D01*
X149551693Y-95213958D01*
X149553195Y-95233034D01*
X149554438Y-95248831D01*
X149556233Y-95255008D01*
X149598643Y-95400989D01*
X149598645Y-95400993D01*
X149600855Y-95408601D01*
X149603885Y-95413725D01*
X149614000Y-95462570D01*
X149614000Y-95781878D01*
X149617973Y-95795409D01*
X149625871Y-95796544D01*
X149765790Y-95755893D01*
X149780221Y-95749648D01*
X149795370Y-95740689D01*
X149864186Y-95723230D01*
X149923648Y-95740690D01*
X149946399Y-95754145D01*
X149954010Y-95756356D01*
X149954012Y-95756357D01*
X150006231Y-95771528D01*
X150106169Y-95800562D01*
X150112574Y-95801066D01*
X150112579Y-95801067D01*
X150141042Y-95803307D01*
X150141050Y-95803307D01*
X150143498Y-95803500D01*
X150576502Y-95803500D01*
X150578950Y-95803307D01*
X150578958Y-95803307D01*
X150607421Y-95801067D01*
X150607426Y-95801066D01*
X150613831Y-95800562D01*
X150713769Y-95771528D01*
X150765988Y-95756357D01*
X150765990Y-95756356D01*
X150773601Y-95754145D01*
X150780426Y-95750109D01*
X150795863Y-95740980D01*
X150864679Y-95723522D01*
X150924137Y-95740980D01*
X150939574Y-95750109D01*
X150946399Y-95754145D01*
X150954010Y-95756356D01*
X150954012Y-95756357D01*
X151006231Y-95771528D01*
X151106169Y-95800562D01*
X151112574Y-95801066D01*
X151112579Y-95801067D01*
X151141042Y-95803307D01*
X151141050Y-95803307D01*
X151143498Y-95803500D01*
X151576502Y-95803500D01*
X151578950Y-95803307D01*
X151578958Y-95803307D01*
X151607421Y-95801067D01*
X151607426Y-95801066D01*
X151613831Y-95800562D01*
X151713769Y-95771528D01*
X151765988Y-95756357D01*
X151765990Y-95756356D01*
X151773601Y-95754145D01*
X151825875Y-95723230D01*
X151909980Y-95673491D01*
X151909983Y-95673489D01*
X151916807Y-95669453D01*
X152034453Y-95551807D01*
X152038489Y-95544983D01*
X152038491Y-95544980D01*
X152102107Y-95437411D01*
X152119145Y-95408601D01*
X152121356Y-95400990D01*
X152121357Y-95400988D01*
X152144146Y-95322547D01*
X152182359Y-95262712D01*
X152246855Y-95233034D01*
X152265143Y-95231700D01*
X153358685Y-95231700D01*
X153366294Y-95231930D01*
X153419680Y-95235160D01*
X153419682Y-95235160D01*
X153427287Y-95235620D01*
X153487420Y-95224600D01*
X153494919Y-95223459D01*
X153526191Y-95219662D01*
X153548006Y-95217013D01*
X153548008Y-95217012D01*
X153555572Y-95216094D01*
X153565199Y-95212443D01*
X153587163Y-95206320D01*
X153597287Y-95204465D01*
X153604238Y-95201337D01*
X153604240Y-95201336D01*
X153623685Y-95192584D01*
X153653014Y-95179384D01*
X153660036Y-95176476D01*
X153710048Y-95157509D01*
X153710047Y-95157509D01*
X153717173Y-95154807D01*
X153723439Y-95150482D01*
X153723441Y-95150481D01*
X153725647Y-95148958D01*
X153745505Y-95137758D01*
X153754893Y-95133533D01*
X153802999Y-95095844D01*
X153809107Y-95091350D01*
X153859411Y-95056628D01*
X153864462Y-95050927D01*
X153864466Y-95050923D01*
X153899938Y-95010882D01*
X153905156Y-95005340D01*
X157965340Y-90945156D01*
X157970882Y-90939938D01*
X158010923Y-90904466D01*
X158010927Y-90904462D01*
X158016628Y-90899411D01*
X158051350Y-90849107D01*
X158055851Y-90842990D01*
X158088835Y-90800890D01*
X158088836Y-90800888D01*
X158093533Y-90794893D01*
X158097758Y-90785505D01*
X158108958Y-90765647D01*
X158110481Y-90763441D01*
X158110482Y-90763439D01*
X158114807Y-90757173D01*
X158136476Y-90700035D01*
X158139389Y-90693003D01*
X158161336Y-90644240D01*
X158161337Y-90644238D01*
X158164465Y-90637287D01*
X158166320Y-90627163D01*
X158172444Y-90605195D01*
X158173393Y-90602694D01*
X158173393Y-90602693D01*
X158176094Y-90595572D01*
X158183459Y-90534919D01*
X158184602Y-90527407D01*
X158194246Y-90474782D01*
X158195620Y-90467287D01*
X158193002Y-90424000D01*
X158191930Y-90406288D01*
X158191700Y-90398680D01*
X158191700Y-90379500D01*
X158211702Y-90311379D01*
X158265358Y-90264886D01*
X158317700Y-90253500D01*
X158378638Y-90253500D01*
X158381985Y-90253140D01*
X158381988Y-90253140D01*
X158402295Y-90250957D01*
X158439201Y-90246989D01*
X158576204Y-90195889D01*
X158693261Y-90108261D01*
X158735045Y-90052444D01*
X158775489Y-89998418D01*
X158775490Y-89998416D01*
X158780889Y-89991204D01*
X158831989Y-89854201D01*
X158836476Y-89812468D01*
X158838140Y-89796988D01*
X158838140Y-89796985D01*
X158838500Y-89793638D01*
X158838500Y-87996362D01*
X158831989Y-87935799D01*
X158780889Y-87798796D01*
X158774672Y-87790490D01*
X158698659Y-87688950D01*
X158693261Y-87681739D01*
X158576204Y-87594111D01*
X158461192Y-87551213D01*
X158404358Y-87508667D01*
X158379547Y-87442147D01*
X158394639Y-87372773D01*
X158412525Y-87347820D01*
X158552194Y-87196101D01*
X158552197Y-87196097D01*
X158555722Y-87192268D01*
X158643491Y-87057928D01*
X158676008Y-87008157D01*
X158676010Y-87008153D01*
X158678860Y-87003791D01*
X158769296Y-86797616D01*
X158812463Y-86627156D01*
X158823283Y-86584427D01*
X158823283Y-86584426D01*
X158824564Y-86579368D01*
X158831436Y-86496444D01*
X158842726Y-86360189D01*
X158843156Y-86355000D01*
X158824564Y-86130632D01*
X158819164Y-86109309D01*
X158821830Y-86038366D01*
X158852213Y-85989283D01*
X160337039Y-84504457D01*
X160399351Y-84470431D01*
X160470166Y-84475496D01*
X160527002Y-84518043D01*
X160550084Y-84570916D01*
X160551731Y-84579932D01*
X160594107Y-84725790D01*
X160600352Y-84740221D01*
X160609311Y-84755370D01*
X160626770Y-84824186D01*
X160609310Y-84883648D01*
X160595855Y-84906399D01*
X160549438Y-85066169D01*
X160546500Y-85103498D01*
X160546500Y-85536502D01*
X160549438Y-85573831D01*
X160595855Y-85733601D01*
X160599892Y-85740427D01*
X160676509Y-85869980D01*
X160676511Y-85869983D01*
X160680547Y-85876807D01*
X160798193Y-85994453D01*
X160805017Y-85998489D01*
X160805020Y-85998491D01*
X160912589Y-86062107D01*
X160941399Y-86079145D01*
X160949009Y-86081356D01*
X160949014Y-86081358D01*
X161021488Y-86102413D01*
X161081324Y-86140626D01*
X161111002Y-86205122D01*
X161101099Y-86275424D01*
X161079975Y-86307716D01*
X161058960Y-86331056D01*
X160963473Y-86496444D01*
X160904458Y-86678072D01*
X160903768Y-86684633D01*
X160903768Y-86684635D01*
X160891391Y-86802394D01*
X160884496Y-86868000D01*
X160904458Y-87057928D01*
X160963473Y-87239556D01*
X161058960Y-87404944D01*
X161063378Y-87409851D01*
X161063379Y-87409852D01*
X161177413Y-87536500D01*
X161186747Y-87546866D01*
X161341248Y-87659118D01*
X161347276Y-87661802D01*
X161347278Y-87661803D01*
X161474816Y-87718586D01*
X161515712Y-87736794D01*
X161609112Y-87756647D01*
X161696056Y-87775128D01*
X161696061Y-87775128D01*
X161702513Y-87776500D01*
X161893487Y-87776500D01*
X161899939Y-87775128D01*
X161899944Y-87775128D01*
X161986887Y-87756647D01*
X162080288Y-87736794D01*
X162121184Y-87718586D01*
X162248722Y-87661803D01*
X162248724Y-87661802D01*
X162254752Y-87659118D01*
X162409253Y-87546866D01*
X162418587Y-87536500D01*
X162532621Y-87409852D01*
X162532622Y-87409851D01*
X162537040Y-87404944D01*
X162632527Y-87239556D01*
X162691542Y-87057928D01*
X162711504Y-86868000D01*
X162704609Y-86802394D01*
X162692232Y-86684635D01*
X162692232Y-86684633D01*
X162691542Y-86678072D01*
X162632527Y-86496444D01*
X162558581Y-86368366D01*
X162541700Y-86305366D01*
X162541700Y-86225143D01*
X162561702Y-86157022D01*
X162615358Y-86110529D01*
X162632547Y-86104146D01*
X162710988Y-86081357D01*
X162710990Y-86081356D01*
X162718601Y-86079145D01*
X162747411Y-86062107D01*
X162854980Y-85998491D01*
X162854983Y-85998489D01*
X162861807Y-85994453D01*
X162979453Y-85876807D01*
X162983489Y-85869983D01*
X162983491Y-85869980D01*
X163060108Y-85740427D01*
X163064145Y-85733601D01*
X163110562Y-85573831D01*
X163113500Y-85536502D01*
X163113500Y-85103498D01*
X163110562Y-85066169D01*
X163064145Y-84906399D01*
X163050690Y-84883649D01*
X163033230Y-84814835D01*
X163050689Y-84755370D01*
X163059648Y-84740221D01*
X163065893Y-84725790D01*
X163104939Y-84591395D01*
X163104899Y-84577294D01*
X163097630Y-84574000D01*
X162772570Y-84574000D01*
X162723725Y-84563885D01*
X162718601Y-84560855D01*
X162710993Y-84558645D01*
X162710989Y-84558643D01*
X162630578Y-84535282D01*
X162558831Y-84514438D01*
X162552426Y-84513934D01*
X162552421Y-84513933D01*
X162523958Y-84511693D01*
X162523950Y-84511693D01*
X162521502Y-84511500D01*
X161702000Y-84511500D01*
X161633879Y-84491498D01*
X161587386Y-84437842D01*
X161576000Y-84385500D01*
X161576000Y-84254500D01*
X161596002Y-84186379D01*
X161649658Y-84139886D01*
X161702000Y-84128500D01*
X162521502Y-84128500D01*
X162523950Y-84128307D01*
X162523958Y-84128307D01*
X162552421Y-84126067D01*
X162552426Y-84126066D01*
X162558831Y-84125562D01*
X162630578Y-84104718D01*
X162710989Y-84081357D01*
X162710993Y-84081355D01*
X162718601Y-84079145D01*
X162723725Y-84076115D01*
X162772570Y-84066000D01*
X163091878Y-84066000D01*
X163105409Y-84062027D01*
X163106544Y-84054129D01*
X163065893Y-83914210D01*
X163059648Y-83899779D01*
X163050689Y-83884630D01*
X163033230Y-83815814D01*
X163050690Y-83756352D01*
X163064145Y-83733601D01*
X163073499Y-83701406D01*
X163105681Y-83590632D01*
X163110562Y-83573831D01*
X163111400Y-83563195D01*
X163113307Y-83538958D01*
X163113307Y-83538950D01*
X163113500Y-83536502D01*
X163113500Y-83103498D01*
X163113307Y-83101042D01*
X163111067Y-83072579D01*
X163111066Y-83072574D01*
X163110562Y-83066169D01*
X163064145Y-82906399D01*
X163060109Y-82899574D01*
X163050980Y-82884137D01*
X163033522Y-82815321D01*
X163050980Y-82755863D01*
X163060109Y-82740426D01*
X163060110Y-82740424D01*
X163064145Y-82733601D01*
X163110562Y-82573831D01*
X163112832Y-82545000D01*
X163113307Y-82538958D01*
X163113307Y-82538950D01*
X163113500Y-82536502D01*
X163113500Y-82103498D01*
X163110562Y-82066169D01*
X163064145Y-81906399D01*
X163047107Y-81877589D01*
X162983491Y-81770020D01*
X162983489Y-81770017D01*
X162979453Y-81763193D01*
X162861807Y-81645547D01*
X162854983Y-81641511D01*
X162854980Y-81641509D01*
X162725427Y-81564892D01*
X162725428Y-81564892D01*
X162718601Y-81560855D01*
X162710990Y-81558644D01*
X162710988Y-81558643D01*
X162615666Y-81530950D01*
X162558831Y-81514438D01*
X162552426Y-81513934D01*
X162552421Y-81513933D01*
X162523958Y-81511693D01*
X162523950Y-81511693D01*
X162521502Y-81511500D01*
X161138498Y-81511500D01*
X161136050Y-81511693D01*
X161136042Y-81511693D01*
X161107579Y-81513933D01*
X161107574Y-81513934D01*
X161101169Y-81514438D01*
X161044334Y-81530950D01*
X160949012Y-81558643D01*
X160949010Y-81558644D01*
X160941399Y-81560855D01*
X160890841Y-81590755D01*
X160826705Y-81608300D01*
X160275303Y-81608300D01*
X160267695Y-81608070D01*
X160214321Y-81604841D01*
X160214319Y-81604841D01*
X160206713Y-81604381D01*
X160199216Y-81605755D01*
X160199214Y-81605755D01*
X160146603Y-81615396D01*
X160139081Y-81616541D01*
X160085994Y-81622987D01*
X160085992Y-81622988D01*
X160078428Y-81623906D01*
X160068801Y-81627557D01*
X160046838Y-81633679D01*
X160036712Y-81635535D01*
X160002004Y-81651156D01*
X159980998Y-81660610D01*
X159973966Y-81663523D01*
X159916827Y-81685193D01*
X159910561Y-81689518D01*
X159910559Y-81689519D01*
X159908353Y-81691042D01*
X159888492Y-81702244D01*
X159886054Y-81703341D01*
X159886052Y-81703342D01*
X159879107Y-81706468D01*
X159873110Y-81711166D01*
X159873109Y-81711167D01*
X159831024Y-81744139D01*
X159824892Y-81748651D01*
X159774589Y-81783372D01*
X159769535Y-81789077D01*
X159734055Y-81829126D01*
X159728837Y-81834668D01*
X159693720Y-81869785D01*
X159630823Y-81903936D01*
X159483712Y-81935206D01*
X159477682Y-81937891D01*
X159477681Y-81937891D01*
X159315278Y-82010197D01*
X159315276Y-82010198D01*
X159309248Y-82012882D01*
X159154747Y-82125134D01*
X159150326Y-82130044D01*
X159150325Y-82130045D01*
X159115896Y-82168283D01*
X159026960Y-82267056D01*
X158975508Y-82356174D01*
X158939427Y-82418668D01*
X158931473Y-82432444D01*
X158872458Y-82614072D01*
X158852496Y-82804000D01*
X158853186Y-82810565D01*
X158864059Y-82914012D01*
X158872458Y-82993928D01*
X158874497Y-83000203D01*
X158882724Y-83025522D01*
X158884752Y-83096490D01*
X158848089Y-83157288D01*
X158784377Y-83188613D01*
X158713844Y-83180521D01*
X158657408Y-83133374D01*
X158566303Y-82993928D01*
X158555722Y-82977732D01*
X158552197Y-82973903D01*
X158552194Y-82973899D01*
X158406772Y-82815931D01*
X158403240Y-82812094D01*
X158311162Y-82740426D01*
X158229689Y-82677012D01*
X158229687Y-82677010D01*
X158225576Y-82673811D01*
X158192320Y-82655814D01*
X158141929Y-82605801D01*
X158126577Y-82536484D01*
X158151137Y-82469871D01*
X158192320Y-82434186D01*
X158206115Y-82426721D01*
X158225576Y-82416189D01*
X158302683Y-82356174D01*
X158399121Y-82281112D01*
X158403240Y-82277906D01*
X158539357Y-82130045D01*
X158552194Y-82116101D01*
X158552197Y-82116097D01*
X158555722Y-82112268D01*
X158591005Y-82058264D01*
X158676008Y-81928157D01*
X158676010Y-81928153D01*
X158678860Y-81923791D01*
X158683150Y-81914012D01*
X158749304Y-81763193D01*
X158769296Y-81717616D01*
X158774379Y-81697546D01*
X158823283Y-81504427D01*
X158823283Y-81504426D01*
X158824564Y-81499368D01*
X158831362Y-81417338D01*
X158842726Y-81280189D01*
X158843156Y-81275000D01*
X158824564Y-81050632D01*
X158769296Y-80832384D01*
X158678860Y-80626209D01*
X158674448Y-80619455D01*
X158558573Y-80442096D01*
X158555722Y-80437732D01*
X158552197Y-80433903D01*
X158552194Y-80433899D01*
X158406772Y-80275931D01*
X158403240Y-80272094D01*
X158225576Y-80133811D01*
X158191792Y-80115528D01*
X158141403Y-80065515D01*
X158126051Y-79996198D01*
X158150612Y-79929585D01*
X158191794Y-79893901D01*
X158220719Y-79878248D01*
X158229411Y-79872569D01*
X158398789Y-79740737D01*
X158406432Y-79733700D01*
X158551790Y-79575799D01*
X158558177Y-79567593D01*
X158675569Y-79387913D01*
X158680512Y-79378778D01*
X158766730Y-79182223D01*
X158770100Y-79172408D01*
X158812097Y-79006561D01*
X158811567Y-78992470D01*
X158803145Y-78989000D01*
X157352000Y-78989000D01*
X157283879Y-78968998D01*
X157237386Y-78915342D01*
X157226000Y-78863000D01*
X157226000Y-78462885D01*
X157734000Y-78462885D01*
X157738475Y-78478124D01*
X157739865Y-78479329D01*
X157747548Y-78481000D01*
X158798429Y-78481000D01*
X158811960Y-78477027D01*
X158813256Y-78468014D01*
X158770100Y-78297592D01*
X158766730Y-78287777D01*
X158680512Y-78091222D01*
X158675569Y-78082087D01*
X158558177Y-77902407D01*
X158551790Y-77894201D01*
X158406432Y-77736300D01*
X158398789Y-77729263D01*
X158229411Y-77597431D01*
X158220718Y-77591752D01*
X158031957Y-77489599D01*
X158022440Y-77485425D01*
X157819443Y-77415736D01*
X157809373Y-77413185D01*
X157751867Y-77403589D01*
X157738352Y-77405223D01*
X157734000Y-77419449D01*
X157734000Y-78462885D01*
X157226000Y-78462885D01*
X157226000Y-77418723D01*
X157222164Y-77405660D01*
X157207416Y-77403709D01*
X157150627Y-77413185D01*
X157140557Y-77415736D01*
X156937560Y-77485425D01*
X156928043Y-77489599D01*
X156739282Y-77591752D01*
X156730589Y-77597431D01*
X156617091Y-77685770D01*
X156551048Y-77711826D01*
X156481403Y-77698041D01*
X156430267Y-77648790D01*
X156413700Y-77586338D01*
X156413700Y-77241320D01*
X156413930Y-77233712D01*
X156417160Y-77180320D01*
X156417160Y-77180319D01*
X156417620Y-77172713D01*
X156406600Y-77112580D01*
X156405457Y-77105068D01*
X156399013Y-77051994D01*
X156399012Y-77051992D01*
X156398094Y-77044428D01*
X156394443Y-77034801D01*
X156388320Y-77012837D01*
X156386465Y-77002713D01*
X156361384Y-76946986D01*
X156358476Y-76939964D01*
X156339509Y-76889952D01*
X156336807Y-76882827D01*
X156330958Y-76874353D01*
X156319756Y-76854491D01*
X156315533Y-76845107D01*
X156307652Y-76835047D01*
X156277851Y-76797010D01*
X156273350Y-76790893D01*
X156238628Y-76740589D01*
X156232927Y-76735538D01*
X156232923Y-76735534D01*
X156192882Y-76700062D01*
X156187340Y-76694844D01*
X153429156Y-73936660D01*
X153423938Y-73931118D01*
X153388466Y-73891077D01*
X153388462Y-73891073D01*
X153383411Y-73885372D01*
X153377139Y-73881043D01*
X153371434Y-73875989D01*
X153373333Y-73873845D01*
X153337039Y-73829066D01*
X153329252Y-73758497D01*
X153360852Y-73694921D01*
X153379251Y-73678584D01*
X153422537Y-73647135D01*
X153519253Y-73576866D01*
X153647040Y-73434944D01*
X153724753Y-73300342D01*
X153739223Y-73275279D01*
X153739224Y-73275278D01*
X153742527Y-73269556D01*
X153801542Y-73087928D01*
X153812899Y-72979877D01*
X153820814Y-72904565D01*
X153821504Y-72898000D01*
X153801542Y-72708072D01*
X153742527Y-72526444D01*
X153647040Y-72361056D01*
X153612448Y-72322637D01*
X153523675Y-72224045D01*
X153523674Y-72224044D01*
X153519253Y-72219134D01*
X153364752Y-72106882D01*
X153358724Y-72104198D01*
X153358722Y-72104197D01*
X153196319Y-72031891D01*
X153196318Y-72031891D01*
X153190288Y-72029206D01*
X153096888Y-72009353D01*
X153009944Y-71990872D01*
X153009939Y-71990872D01*
X153003487Y-71989500D01*
X152812513Y-71989500D01*
X152806061Y-71990872D01*
X152806056Y-71990872D01*
X152719112Y-72009353D01*
X152625712Y-72029206D01*
X152619682Y-72031891D01*
X152619681Y-72031891D01*
X152457278Y-72104197D01*
X152457276Y-72104198D01*
X152451248Y-72106882D01*
X152296747Y-72219134D01*
X152292327Y-72224043D01*
X152290882Y-72225344D01*
X152226874Y-72256061D01*
X152156421Y-72247296D01*
X152098119Y-72195846D01*
X152038491Y-72095020D01*
X152038489Y-72095017D01*
X152034453Y-72088193D01*
X151916807Y-71970547D01*
X151909983Y-71966511D01*
X151909980Y-71966509D01*
X151780427Y-71889892D01*
X151780425Y-71889891D01*
X151773601Y-71885855D01*
X151765990Y-71883644D01*
X151765988Y-71883643D01*
X151678142Y-71858122D01*
X151613831Y-71839438D01*
X151607426Y-71838934D01*
X151607421Y-71838933D01*
X151578958Y-71836693D01*
X151578950Y-71836693D01*
X151576502Y-71836500D01*
X151143498Y-71836500D01*
X151141050Y-71836693D01*
X151141042Y-71836693D01*
X151112579Y-71838933D01*
X151112574Y-71838934D01*
X151106169Y-71839438D01*
X151041858Y-71858122D01*
X150954012Y-71883643D01*
X150954010Y-71883644D01*
X150946399Y-71885855D01*
X150923649Y-71899310D01*
X150854835Y-71916770D01*
X150795370Y-71899311D01*
X150780221Y-71890352D01*
X150765790Y-71884107D01*
X150631395Y-71845061D01*
X150617294Y-71845101D01*
X150614000Y-71852370D01*
X150614000Y-72177430D01*
X150603885Y-72226275D01*
X150600855Y-72231399D01*
X150598645Y-72239007D01*
X150598643Y-72239011D01*
X150593690Y-72256061D01*
X150554438Y-72391169D01*
X150551500Y-72428498D01*
X150551500Y-73248000D01*
X150531498Y-73316121D01*
X150477842Y-73362614D01*
X150425500Y-73374000D01*
X150294500Y-73374000D01*
X150226379Y-73353998D01*
X150179886Y-73300342D01*
X150168500Y-73248000D01*
X150168500Y-72428498D01*
X150165562Y-72391169D01*
X150126310Y-72256061D01*
X150121357Y-72239011D01*
X150121355Y-72239007D01*
X150119145Y-72231399D01*
X150116115Y-72226275D01*
X150106000Y-72177430D01*
X150106000Y-71858122D01*
X150102027Y-71844591D01*
X150094129Y-71843456D01*
X149954210Y-71884107D01*
X149939779Y-71890352D01*
X149924630Y-71899311D01*
X149855814Y-71916770D01*
X149796352Y-71899310D01*
X149773601Y-71885855D01*
X149765990Y-71883644D01*
X149765988Y-71883643D01*
X149678142Y-71858122D01*
X149613831Y-71839438D01*
X149607426Y-71838934D01*
X149607421Y-71838933D01*
X149578958Y-71836693D01*
X149578950Y-71836693D01*
X149576502Y-71836500D01*
X149143498Y-71836500D01*
X149141050Y-71836693D01*
X149141042Y-71836693D01*
X149112579Y-71838933D01*
X149112574Y-71838934D01*
X149106169Y-71839438D01*
X149041858Y-71858122D01*
X148954012Y-71883643D01*
X148954010Y-71883644D01*
X148946399Y-71885855D01*
X148939576Y-71889890D01*
X148939574Y-71889891D01*
X148924137Y-71899020D01*
X148855321Y-71916478D01*
X148795863Y-71899020D01*
X148780426Y-71889891D01*
X148780424Y-71889890D01*
X148773601Y-71885855D01*
X148765990Y-71883644D01*
X148765988Y-71883643D01*
X148678142Y-71858122D01*
X148613831Y-71839438D01*
X148607426Y-71838934D01*
X148607421Y-71838933D01*
X148578958Y-71836693D01*
X148578950Y-71836693D01*
X148576502Y-71836500D01*
X148143498Y-71836500D01*
X148141050Y-71836693D01*
X148141042Y-71836693D01*
X148112579Y-71838933D01*
X148112574Y-71838934D01*
X148106169Y-71839438D01*
X148041858Y-71858122D01*
X147954012Y-71883643D01*
X147954010Y-71883644D01*
X147946399Y-71885855D01*
X147939575Y-71889891D01*
X147939573Y-71889892D01*
X147810020Y-71966509D01*
X147810017Y-71966511D01*
X147803193Y-71970547D01*
X147685547Y-72088193D01*
X147681511Y-72095017D01*
X147681509Y-72095020D01*
X147676082Y-72104197D01*
X147600855Y-72231399D01*
X147598644Y-72239010D01*
X147598643Y-72239012D01*
X147593690Y-72256061D01*
X147554438Y-72391169D01*
X147551500Y-72428498D01*
X147551500Y-73811502D01*
X147554438Y-73848831D01*
X147600855Y-74008601D01*
X147630755Y-74059159D01*
X147648300Y-74123295D01*
X147648300Y-74420685D01*
X147648070Y-74428293D01*
X147644380Y-74489287D01*
X147645754Y-74496783D01*
X147655398Y-74549407D01*
X147656541Y-74556919D01*
X147663906Y-74617572D01*
X147666607Y-74624693D01*
X147666607Y-74624694D01*
X147667556Y-74627195D01*
X147673680Y-74649163D01*
X147675535Y-74659287D01*
X147678663Y-74666238D01*
X147678664Y-74666240D01*
X147700611Y-74715003D01*
X147703524Y-74722035D01*
X147725193Y-74779173D01*
X147729518Y-74785439D01*
X147729519Y-74785441D01*
X147731042Y-74787647D01*
X147742242Y-74807505D01*
X147746467Y-74816893D01*
X147751164Y-74822888D01*
X147751165Y-74822890D01*
X147784149Y-74864990D01*
X147788650Y-74871107D01*
X147823372Y-74921411D01*
X147829073Y-74926462D01*
X147829077Y-74926466D01*
X147869118Y-74961938D01*
X147874660Y-74967156D01*
X148526909Y-75619405D01*
X148560935Y-75681717D01*
X148555870Y-75752532D01*
X148513323Y-75809368D01*
X148446803Y-75834179D01*
X148437814Y-75834500D01*
X146828957Y-75834500D01*
X146806132Y-75832415D01*
X146796062Y-75830560D01*
X146712407Y-75815151D01*
X146680934Y-75804936D01*
X146665433Y-75797533D01*
X146518457Y-75727343D01*
X146503289Y-75718764D01*
X146466874Y-75694700D01*
X146424866Y-75666940D01*
X146415082Y-75659774D01*
X146263325Y-75536986D01*
X146253098Y-75527741D01*
X146113187Y-75386610D01*
X146104003Y-75376268D01*
X145982887Y-75223780D01*
X145977399Y-75216323D01*
X145961161Y-75192467D01*
X145954820Y-75182111D01*
X145864075Y-75016485D01*
X145857465Y-75002427D01*
X145852287Y-74989382D01*
X145846102Y-74968859D01*
X145845175Y-74964454D01*
X145834790Y-74915139D01*
X145820608Y-74847787D01*
X145817904Y-74821825D01*
X145817904Y-71820000D01*
X157112135Y-71820000D01*
X157112487Y-71824697D01*
X157128014Y-72031891D01*
X157131181Y-72074157D01*
X157132231Y-72078756D01*
X157132231Y-72078758D01*
X157167070Y-72231399D01*
X157187895Y-72322637D01*
X157189618Y-72327028D01*
X157189619Y-72327030D01*
X157212368Y-72384992D01*
X157281010Y-72559888D01*
X157408444Y-72780612D01*
X157411376Y-72784289D01*
X157411379Y-72784293D01*
X157564418Y-72976197D01*
X157567353Y-72979877D01*
X157754186Y-73153232D01*
X157758085Y-73155890D01*
X157957443Y-73291810D01*
X157964769Y-73296805D01*
X158194399Y-73407389D01*
X158316172Y-73444951D01*
X158433438Y-73481123D01*
X158433441Y-73481124D01*
X158437945Y-73482513D01*
X158535245Y-73497179D01*
X158685308Y-73519798D01*
X158685313Y-73519798D01*
X158689968Y-73520500D01*
X158944838Y-73520500D01*
X158949493Y-73519798D01*
X158949498Y-73519798D01*
X159099561Y-73497179D01*
X159196861Y-73482513D01*
X159201365Y-73481124D01*
X159201368Y-73481123D01*
X159318634Y-73444951D01*
X159440407Y-73407389D01*
X159670037Y-73296805D01*
X159677364Y-73291810D01*
X159876721Y-73155890D01*
X159880620Y-73153232D01*
X160067453Y-72979877D01*
X160070388Y-72976197D01*
X160223427Y-72784293D01*
X160223430Y-72784289D01*
X160226362Y-72780612D01*
X160353796Y-72559888D01*
X160422438Y-72384992D01*
X160445187Y-72327030D01*
X160445188Y-72327028D01*
X160446911Y-72322637D01*
X160467736Y-72231399D01*
X160502575Y-72078758D01*
X160502575Y-72078756D01*
X160503625Y-72074157D01*
X160506793Y-72031891D01*
X160522319Y-71824697D01*
X160522671Y-71820000D01*
X160503625Y-71565843D01*
X160446911Y-71317363D01*
X160353796Y-71080112D01*
X160226362Y-70859388D01*
X160223430Y-70855711D01*
X160223427Y-70855707D01*
X160070388Y-70663803D01*
X160070386Y-70663801D01*
X160067453Y-70660123D01*
X159880620Y-70486768D01*
X159766791Y-70409161D01*
X159673933Y-70345851D01*
X159673931Y-70345850D01*
X159670037Y-70343195D01*
X159515438Y-70268744D01*
X159444656Y-70234657D01*
X159444654Y-70234656D01*
X159440407Y-70232611D01*
X159248155Y-70173309D01*
X159201368Y-70158877D01*
X159201365Y-70158876D01*
X159196861Y-70157487D01*
X159099561Y-70142821D01*
X158949498Y-70120202D01*
X158949493Y-70120202D01*
X158944838Y-70119500D01*
X158689968Y-70119500D01*
X158685313Y-70120202D01*
X158685308Y-70120202D01*
X158535245Y-70142821D01*
X158437945Y-70157487D01*
X158433441Y-70158876D01*
X158433438Y-70158877D01*
X158386651Y-70173309D01*
X158194399Y-70232611D01*
X158190152Y-70234656D01*
X158190150Y-70234657D01*
X158119368Y-70268744D01*
X157964769Y-70343195D01*
X157960875Y-70345850D01*
X157960873Y-70345851D01*
X157868015Y-70409161D01*
X157754186Y-70486768D01*
X157567353Y-70660123D01*
X157564420Y-70663801D01*
X157564418Y-70663803D01*
X157411379Y-70855707D01*
X157411376Y-70855711D01*
X157408444Y-70859388D01*
X157281010Y-71080112D01*
X157187895Y-71317363D01*
X157131181Y-71565843D01*
X157112135Y-71820000D01*
X145817904Y-71820000D01*
X145817904Y-70337808D01*
X145837906Y-70269687D01*
X145891562Y-70223194D01*
X145961836Y-70213090D01*
X146026416Y-70242584D01*
X146051145Y-70271661D01*
X146096265Y-70344811D01*
X146110970Y-70368652D01*
X146236348Y-70494030D01*
X146387262Y-70587115D01*
X146450807Y-70608171D01*
X146549048Y-70640725D01*
X146549052Y-70640726D01*
X146555574Y-70642887D01*
X146562408Y-70643585D01*
X146562412Y-70643586D01*
X146656271Y-70653175D01*
X146656277Y-70653175D01*
X146659455Y-70653500D01*
X147059937Y-70653500D01*
X147460544Y-70653499D01*
X147463721Y-70653174D01*
X147463730Y-70653174D01*
X147512467Y-70648195D01*
X147564426Y-70642887D01*
X147732738Y-70587115D01*
X147883652Y-70494030D01*
X148009030Y-70368652D01*
X148024597Y-70343415D01*
X148086790Y-70242584D01*
X148102115Y-70217738D01*
X148157887Y-70049426D01*
X148158611Y-70042348D01*
X148168175Y-69948729D01*
X148168175Y-69948723D01*
X148168500Y-69945545D01*
X148168499Y-68544456D01*
X148167906Y-68538644D01*
X148160353Y-68464716D01*
X148157887Y-68440574D01*
X148102115Y-68272262D01*
X148047569Y-68183829D01*
X148012884Y-68127596D01*
X148012883Y-68127595D01*
X148009030Y-68121348D01*
X147923277Y-68035595D01*
X147889251Y-67973283D01*
X147894316Y-67902468D01*
X147936863Y-67845632D01*
X148003383Y-67820821D01*
X148012372Y-67820500D01*
X151707628Y-67820500D01*
X151775749Y-67840502D01*
G37*
%TD.AperFunction*%
%TD*%
M02*
